<svg width="35" height="36" viewBox="0 0 35 36" fill="none" xmlns="http://www.w3.org/2000/svg">
<path d="M29.873 5.69735C26.5713 2.41501 22.1758 0.611084 17.5 0.611084C12.8242 0.611084 8.42871 2.41501 5.12695 5.69735C1.81836 8.9729 0 13.3335 0 17.9722C0 22.6109 1.81836 26.9715 5.12695 30.247C8.42871 33.5294 12.8242 35.3333 17.5 35.3333C22.1758 35.3333 26.5713 33.5294 29.873 30.247C33.1816 26.9715 35 22.6109 35 17.9722C35 13.3335 33.1816 8.9729 29.873 5.69735Z" fill="#EE4F4F"/>
<path d="M19.5642 17.9721L22.907 14.6559C23.4744 14.093 23.4744 13.1775 22.907 12.6078C22.3396 12.0449 21.4167 12.0449 20.8425 12.6078L17.4998 15.9241L14.157 12.6078C13.5896 12.0449 12.6667 12.0449 12.0925 12.6078C11.5251 13.1707 11.5251 14.0862 12.0925 14.6559L15.4353 17.9721L12.0925 21.2884C11.5251 21.8513 11.5251 22.7668 12.0925 23.3365C12.3796 23.6213 12.7488 23.7637 13.1248 23.7637C13.5007 23.7637 13.8699 23.6213 14.157 23.3365L17.4998 20.0202L20.8425 23.3365C21.1296 23.6213 21.4988 23.7637 21.8748 23.7637C22.2507 23.7637 22.6199 23.6213 22.907 23.3365C23.4744 22.7736 23.4744 21.858 22.907 21.2884L19.5642 17.9721Z" fill="white"/>
</svg>
