<svg width="1011" height="604" viewBox="0 0 1011 604" fill="none" xmlns="http://www.w3.org/2000/svg">
<rect width="1011" height="604" fill="url(#paint0_radial)"/>
<path d="M431.585 245.035C425.724 117.074 373.219 45.2793 274.07 29.6505C125.346 6.20732 19.9866 69.2108 3.75861 97.0496C-12.4694 124.888 41.4833 122.762 99.8303 97.0496" stroke="#8354B3" stroke-width="2" stroke-linecap="round" stroke-dasharray="8 8"/>
<path d="M92 85L107.29 93.2559L101.83 110.606" stroke="#8354B3" stroke-width="2" stroke-linecap="round"/>
<path d="M408.141 170.132C426.655 170.132 441.664 155.124 441.664 136.61C441.664 118.096 426.655 103.088 408.141 103.088C389.626 103.088 374.617 118.096 374.617 136.61C374.617 155.124 389.626 170.132 408.141 170.132Z" fill="white" stroke="#FFF5D9" stroke-width="2"/>
<path fill-rule="evenodd" clip-rule="evenodd" d="M420.984 150.902H394.905C394.105 150.902 393.456 150.253 393.456 149.453V139.311H422.433V149.453C422.433 150.253 421.784 150.902 420.984 150.902ZM394.905 127.721H404.779C404.179 129.403 402.587 130.618 400.7 130.618C399.899 130.618 399.251 131.266 399.251 132.067C399.251 132.868 399.899 133.516 400.7 133.516C404.198 133.516 407.126 131.022 407.797 127.721H419.449C418.849 129.403 417.256 130.618 415.37 130.618C414.569 130.618 413.921 131.266 413.921 132.067C413.921 132.868 414.569 133.516 415.37 133.516C418.591 133.516 421.295 131.389 422.233 128.478C422.349 128.687 422.433 128.914 422.433 129.169V136.413H393.456V129.169C393.456 128.37 394.105 127.721 394.905 127.721ZM400.7 121.925C402.587 121.925 404.179 123.141 404.779 124.823H396.621C397.221 123.141 398.814 121.925 400.7 121.925ZM415.37 121.925C417.256 121.925 418.849 123.141 419.449 124.823H411.291C411.891 123.141 413.484 121.925 415.37 121.925ZM422.497 125.11C421.936 121.669 418.966 119.028 415.37 119.028C411.872 119.028 408.944 121.521 408.273 124.823H407.797C407.126 121.521 404.198 119.028 400.7 119.028C397.123 119.028 394.163 121.64 393.579 125.052C391.833 125.615 390.558 127.238 390.558 129.169V149.453C390.558 151.849 392.508 153.799 394.905 153.799H420.984C423.381 153.799 425.331 151.849 425.331 149.453V129.169C425.331 127.306 424.147 125.727 422.497 125.11Z" fill="#8354B3"/>
<path d="M178.096 54.3815C192.564 54.3815 204.293 42.6531 204.293 28.1853C204.293 13.7175 192.564 1.98907 178.096 1.98907C163.627 1.98907 151.898 13.7175 151.898 28.1853C151.898 42.6531 163.627 54.3815 178.096 54.3815Z" fill="white" stroke="#FFF5D9" stroke-width="2"/>
<path fill-rule="evenodd" clip-rule="evenodd" d="M182.08 24.6574C182.08 20.5148 178.71 17.1449 174.568 17.1449C170.425 17.1449 167.055 20.5148 167.055 24.6574C167.055 25.7606 167.297 26.8349 167.775 27.8491C167.868 28.0465 167.899 28.2676 167.863 28.4833L167.287 31.938L170.741 31.3617C170.8 31.352 170.859 31.3466 170.918 31.3466C171.075 31.3466 171.232 31.3821 171.375 31.4497C172.391 31.9272 173.465 32.1698 174.568 32.1698C178.71 32.1698 182.08 28.7999 182.08 24.6574ZM174.567 34.3162C173.26 34.3162 171.985 34.0522 170.774 33.5328L166.159 34.3012C166.099 34.3119 166.041 34.3162 165.982 34.3162C165.699 34.3162 165.426 34.2046 165.223 34.0018C164.977 33.7571 164.865 33.4083 164.923 33.0659L165.692 28.4511C165.172 27.2406 164.908 25.9656 164.908 24.6574C164.908 19.3321 169.242 14.9985 174.567 14.9985C179.893 14.9985 184.227 19.3321 184.227 24.6574C184.227 29.9826 179.893 34.3162 174.567 34.3162ZM190.651 39.5051C190.709 39.8475 190.598 40.1963 190.352 40.441C190.149 40.6438 189.875 40.7554 189.593 40.7554C189.534 40.7554 189.476 40.7511 189.416 40.7404L185.416 40.0739C184.351 40.5268 183.231 40.7554 182.08 40.7554C179.7 40.7554 177.487 39.8046 175.849 38.0767C175.441 37.6464 175.459 36.967 175.89 36.5592C176.32 36.1514 176.998 36.1696 177.407 36.6C178.635 37.8953 180.294 38.609 182.08 38.609C183.026 38.609 183.946 38.4008 184.816 37.9909C185.013 37.8986 185.236 37.8685 185.45 37.9039L188.287 38.3761L187.815 35.5397C187.778 35.3239 187.809 35.1029 187.902 34.9054C188.312 34.035 188.52 33.1153 188.52 32.1698C188.52 30.3969 187.815 28.7452 186.533 27.5185C186.105 27.1086 186.091 26.4281 186.501 25.9999C186.911 25.5728 187.591 25.5588 188.019 25.9677C189.726 27.6033 190.666 29.8055 190.666 32.1698C190.666 33.3203 190.438 34.4407 189.985 35.5053L190.651 39.5051Z" fill="#8354B3"/>
<path d="M41.8267 134.967C52.2488 134.967 60.6977 126.519 60.6977 116.097C60.6977 105.675 52.2488 97.227 41.8267 97.227C31.4045 97.227 22.9557 105.675 22.9557 116.097C22.9557 126.519 31.4045 134.967 41.8267 134.967Z" fill="white" stroke="#FFF5D9" stroke-width="2"/>
<path fill-rule="evenodd" clip-rule="evenodd" d="M45.8068 120.077C45.8068 120.493 45.471 120.828 45.0555 120.828H39.0453C38.6299 120.828 38.2941 120.493 38.2941 120.077C38.2941 119.662 38.6299 119.326 39.0453 119.326H45.0555C45.471 119.326 45.8068 119.662 45.8068 120.077ZM38.2941 112.565C38.2941 112.149 38.6299 111.813 39.0453 111.813H40.5479C40.9633 111.813 41.2991 112.149 41.2991 112.565C41.2991 112.98 40.9633 113.316 40.5479 113.316H39.0453C38.6299 113.316 38.2941 112.98 38.2941 112.565ZM45.8068 116.321C45.8068 116.736 45.471 117.072 45.0555 117.072H39.0453C38.6299 117.072 38.2941 116.736 38.2941 116.321C38.2941 115.905 38.6299 115.57 39.0453 115.57H45.0555C45.471 115.57 45.8068 115.905 45.8068 116.321ZM46.5581 123.833H37.5428C37.1281 123.833 36.7915 123.497 36.7915 123.082V109.56C36.7915 109.145 37.1281 108.808 37.5428 108.808H42.8017V111.813C42.8017 112.642 43.4756 113.316 44.3042 113.316H47.3093V123.082C47.3093 123.497 46.9728 123.833 46.5581 123.833ZM46.9983 111.813H44.3042V109.12L46.9983 111.813ZM48.5918 111.282L44.8354 107.526C44.6949 107.385 44.5041 107.306 44.3042 107.306H37.5428C36.3002 107.306 35.289 108.317 35.289 109.56V123.082C35.289 124.325 36.3002 125.336 37.5428 125.336H46.5581C47.8007 125.336 48.8119 124.325 48.8119 123.082V111.813C48.8119 111.614 48.733 111.423 48.5918 111.282Z" fill="#8354B3"/>
<path fill-rule="evenodd" clip-rule="evenodd" d="M611.776 486.862H604.552V476.026H611.776V486.862Z" fill="white"/>
<path fill-rule="evenodd" clip-rule="evenodd" d="M613.583 481.445C613.583 478.453 611.157 476.027 608.164 476.027C605.172 476.027 602.746 478.453 602.746 481.445C602.746 484.436 605.172 486.863 608.164 486.863C611.157 486.863 613.583 484.436 613.583 481.445Z" fill="white"/>
<path fill-rule="evenodd" clip-rule="evenodd" d="M613.583 481.445C613.583 478.453 611.157 476.027 608.164 476.027C605.172 476.027 602.746 478.453 602.746 481.445C602.746 484.436 605.172 486.863 608.164 486.863C611.157 486.863 613.583 484.436 613.583 481.445Z" stroke="#555555" stroke-width="2" stroke-linecap="round" stroke-linejoin="round"/>
<path fill-rule="evenodd" clip-rule="evenodd" d="M598.662 456.217H607.553L612 481.445H603.107L598.662 456.217Z" fill="white"/>
<path fill-rule="evenodd" clip-rule="evenodd" d="M598.662 456.217H607.553L612 481.445H603.107L598.662 456.217Z" stroke="#555555" stroke-width="2" stroke-linecap="round" stroke-linejoin="round"/>
<path fill-rule="evenodd" clip-rule="evenodd" d="M599.134 452.353L554.724 476.026V479.129L561.206 481.444L599.134 461.226V452.353Z" fill="white"/>
<path fill-rule="evenodd" clip-rule="evenodd" d="M599.134 452.353L554.724 476.026V479.129L561.206 481.444L599.134 461.226V452.353Z" stroke="#555555" stroke-width="2" stroke-linecap="round" stroke-linejoin="round"/>
<path fill-rule="evenodd" clip-rule="evenodd" d="M579.402 359.217C575.97 359.217 573.012 356.817 572.327 353.456C570.353 343.792 566.725 323.697 566.725 306.628C566.725 289.557 570.353 269.462 572.327 259.798C573.012 256.437 575.97 254.036 579.402 254.036H658.182C662.73 254.036 666.141 258.179 665.271 262.642C663.244 273.045 660.239 291.089 660.239 306.628C660.239 322.165 663.244 340.211 665.271 350.612C666.141 355.076 662.73 359.217 658.182 359.217H579.402Z" fill="white"/>
<path fill-rule="evenodd" clip-rule="evenodd" d="M579.402 359.217C575.97 359.217 573.012 356.817 572.327 353.456C570.353 343.792 566.725 323.697 566.725 306.628C566.725 289.557 570.353 269.462 572.327 259.798C573.012 256.437 575.97 254.036 579.402 254.036H658.182C662.73 254.036 666.141 258.179 665.271 262.642C663.244 273.045 660.239 291.089 660.239 306.628C660.239 322.165 663.244 340.211 665.271 350.612C666.141 355.076 662.73 359.217 658.182 359.217H579.402ZM542.281 402.805H650.462C652.458 402.805 654.075 401.187 654.075 399.193V395.106C654.075 389.123 649.223 384.27 643.238 384.27H549.505C543.522 384.27 538.669 389.123 538.669 395.106V399.193C538.669 401.187 540.287 402.805 542.281 402.805ZM615.389 413.02H590.103V402.806H615.389V413.02Z" stroke="#555555" stroke-width="2" stroke-linecap="round" stroke-linejoin="round"/>
<path fill-rule="evenodd" clip-rule="evenodd" d="M608.636 461.226H596.856V413.02H608.636V461.226Z" fill="white"/>
<path fill-rule="evenodd" clip-rule="evenodd" d="M608.636 461.226H596.856V413.02H608.636V461.226Z" stroke="#555555" stroke-width="2" stroke-linecap="round" stroke-linejoin="round"/>
<path fill-rule="evenodd" clip-rule="evenodd" d="M602.746 452.353L647.154 476.026V479.129L640.674 481.444L602.746 461.226V452.353Z" fill="white"/>
<path fill-rule="evenodd" clip-rule="evenodd" d="M604.002 451.939L647.154 476.026V479.129L640.674 481.444L604.002 460.931V451.939Z" stroke="#555555" stroke-width="2" stroke-linecap="round" stroke-linejoin="round"/>
<path fill-rule="evenodd" clip-rule="evenodd" d="M640.674 481.445C640.674 478.453 643.1 476.027 646.092 476.027C649.085 476.027 651.511 478.453 651.511 481.445C651.511 484.436 649.085 486.863 646.092 486.863C643.1 486.863 640.674 484.436 640.674 481.445Z" fill="white"/>
<path fill-rule="evenodd" clip-rule="evenodd" d="M640.674 481.445C640.674 478.453 643.1 476.027 646.092 476.027C649.085 476.027 651.511 478.453 651.511 481.445C651.511 484.436 649.085 486.863 646.092 486.863C643.1 486.863 640.674 484.436 640.674 481.445Z" stroke="#555555" stroke-width="2" stroke-linecap="round" stroke-linejoin="round"/>
<path fill-rule="evenodd" clip-rule="evenodd" d="M547.344 295.395C554.601 295.395 561.726 288.884 576.111 275.109C581.257 270.182 588.813 262.946 592.191 260.703C597.466 260.704 604.014 261.611 606.296 261.999C612.197 263.016 617.792 259.037 618.8 253.143C619.808 247.246 615.849 241.649 609.954 240.638C609.491 240.558 598.57 238.709 589.646 239.081C582.687 239.373 576.639 244.598 561.122 259.456C559.593 260.921 557.846 262.593 556.062 264.275C556.947 256.097 558.493 246.034 560.205 237.222C561.345 231.349 557.507 225.662 551.631 224.521C545.76 223.378 540.069 227.217 538.929 233.09C538.832 233.592 536.518 245.541 534.99 257.909C533.123 273.016 530.8 291.817 544.346 295.033C545.359 295.273 546.354 295.395 547.344 295.395Z" fill="white"/>
<path fill-rule="evenodd" clip-rule="evenodd" d="M547.344 295.395C554.601 295.395 561.726 288.884 576.111 275.109C581.257 270.182 588.813 262.946 592.191 260.703C597.466 260.704 604.014 261.611 606.296 261.999C612.197 263.016 617.792 259.037 618.8 253.143C619.808 247.246 615.849 241.649 609.954 240.638C609.491 240.558 598.57 238.709 589.646 239.081C582.687 239.373 576.639 244.598 561.122 259.456C559.593 260.921 557.846 262.593 556.062 264.275C556.947 256.097 558.493 246.034 560.205 237.222C561.345 231.349 557.507 225.662 551.631 224.521C545.76 223.378 540.069 227.217 538.929 233.09C538.832 233.592 536.518 245.541 534.99 257.909C533.123 273.016 530.8 291.817 544.346 295.033C545.359 295.273 546.354 295.395 547.344 295.395Z" fill="white"/>
<path fill-rule="evenodd" clip-rule="evenodd" d="M551.42 295.79C558.677 295.79 565.802 289.279 580.187 275.504C585.333 270.578 592.889 263.341 596.267 261.098C601.542 261.1 608.09 262.006 610.372 262.394C616.273 263.411 621.868 259.433 622.876 253.538C623.884 247.641 619.925 242.044 614.03 241.033C613.567 240.953 602.646 239.104 593.722 239.476C586.763 239.769 580.715 244.993 565.198 259.852C563.669 261.316 561.922 262.989 560.138 264.67C561.023 256.492 562.569 246.429 564.281 237.618C565.421 231.744 561.583 226.057 555.709 224.916C549.836 223.773 544.145 227.612 543.005 233.485C542.908 233.988 540.594 245.936 539.066 258.304C537.198 273.411 534.876 292.212 548.422 295.428C549.435 295.669 550.43 295.79 551.42 295.79Z" fill="#FFF5D9"/>
<path d="M606.296 261.999C612.198 263.016 617.792 259.037 618.799 253.144C619.807 247.246 615.85 241.649 609.953 240.637C609.493 240.558 598.569 238.708 589.647 239.082C582.688 239.375 576.638 244.598 561.122 259.456C559.592 260.921 557.845 262.593 556.063 264.275C556.946 256.097 558.494 246.034 560.204 237.222C561.344 231.349 557.506 225.662 551.632 224.52C545.759 223.377 540.07 227.217 538.928 233.09C538.831 233.592 536.519 245.542 534.991 257.908C533.124 273.017 530.799 291.816 544.345 295.033C545.36 295.273 546.353 295.394 547.343 295.394C554.096 295.394 560.733 289.758 573.212 277.879C574.145 276.991 575.11 276.066 576.112 275.109" stroke="#555555" stroke-width="2" stroke-linecap="round" stroke-linejoin="round"/>
<path fill-rule="evenodd" clip-rule="evenodd" d="M643.41 347.143C643.41 347.143 616.689 339.507 569.362 340.838L561.594 351.685C561.594 351.685 553.315 349.397 548.942 352.26C544.569 355.12 543.211 355.518 543.211 355.518L528.502 357.522C528.502 357.522 521.088 357.97 515.475 366.791C509.862 375.613 459.531 454.867 459.531 454.867L474.189 464.961L535.38 382.27L543.209 381.095L566.309 479.017H587.141L587.349 472.572L572.43 386.079C572.43 386.079 611.386 391.299 619.093 391.616C626.799 391.934 652.211 386.764 649.751 367.499C647.291 348.232 643.41 347.143 643.41 347.143Z" fill="#FFF5D9"/>
<path fill-rule="evenodd" clip-rule="evenodd" d="M624.665 253.442C625.68 260.756 641.328 293.255 678.509 280.92C705.634 271.919 712.969 244.514 703.967 223.9C695.356 204.182 674.88 200.42 669.78 199.832C666.285 199.431 663.887 195.571 666.686 188.242C671.106 176.673 664.221 161.876 650.117 158.329C637.043 155.04 626.387 163.883 623.033 172.216L616.059 181.54L624.665 253.442Z" fill="#B67BF2"/>
<path fill-rule="evenodd" clip-rule="evenodd" d="M703.941 253.726C701.276 259.055 684.248 283.523 644.609 270.684L641.199 271.177L639.023 274.672C639.023 274.672 642.521 279.797 648.035 280.812C653.548 281.829 668.52 286.74 679.835 280.617C691.149 274.493 704.911 264.02 703.941 253.726Z" fill="#8354B3"/>
<path d="M623.033 172.216C626.385 163.883 637.041 155.039 650.117 158.33C664.221 161.875 671.106 176.674 666.684 188.243C663.887 195.572 666.285 199.429 669.78 199.832C674.881 200.419 695.354 204.181 703.968 223.899C712.968 244.513 705.633 271.92 678.507 280.919C641.329 293.256 625.681 260.755 624.666 253.442" stroke="#555555" stroke-width="2" stroke-linecap="round" stroke-linejoin="round"/>
<path fill-rule="evenodd" clip-rule="evenodd" d="M568.391 286.409C569.292 297.093 584.476 304.534 602.306 303.031C620.133 301.527 633.856 291.646 632.955 280.962C632.054 270.277 616.87 262.835 599.04 264.339C581.212 265.842 567.489 275.724 568.391 286.409Z" fill="white"/>
<path fill-rule="evenodd" clip-rule="evenodd" d="M596.846 247.565C596.846 247.565 599.555 249.069 607.269 249.069C614.984 249.069 617.045 246.662 617.045 246.662L617.693 224.386L601.993 225.441L596.846 247.565Z" fill="#FFF5D9"/>
<path fill-rule="evenodd" clip-rule="evenodd" d="M596.846 247.565C596.846 247.565 599.555 249.069 607.269 249.069C614.984 249.069 617.045 246.662 617.045 246.662L617.693 224.386L601.993 225.441L596.846 247.565V247.565Z" stroke="#555555" stroke-width="2" stroke-linecap="round" stroke-linejoin="round"/>
<path fill-rule="evenodd" clip-rule="evenodd" d="M583.34 211.035C586.857 202.509 587.621 196.685 588.442 190.098C589.266 183.513 596.861 168.074 613.76 168.522C629.573 168.939 642.793 182.139 638.244 201.794C634.077 219.798 619.399 234.83 601.497 235.153C583.595 235.476 580.013 219.099 583.34 211.035Z" fill="#FFF5D9"/>
<path fill-rule="evenodd" clip-rule="evenodd" d="M583.34 211.035C586.857 202.509 587.621 196.685 588.442 190.098C589.266 183.513 596.861 168.074 613.76 168.522C629.573 168.939 642.793 182.139 638.244 201.794C634.077 219.798 619.399 234.83 601.497 235.153C583.595 235.476 580.013 219.099 583.34 211.035Z" stroke="#555555" stroke-width="2" stroke-linecap="round" stroke-linejoin="round"/>
<path fill-rule="evenodd" clip-rule="evenodd" d="M556.309 355.501C554.138 369.953 572.242 384.651 596.744 388.329C621.245 392.008 642.866 383.276 645.037 368.826C647.208 354.374 629.104 339.677 604.602 335.998C580.101 332.319 558.478 341.051 556.309 355.501Z" fill="white"/>
<path fill-rule="evenodd" clip-rule="evenodd" d="M564.818 339.653L557.05 350.5C557.05 350.5 548.771 348.214 544.398 351.074C544.203 351.202 544.014 351.325 543.831 351.443L536.217 351.16C524.212 350.732 512.81 356.254 505.739 365.973L449.344 443.307C444.063 450.565 445.663 460.733 452.922 466.014C455.809 468.114 459.158 469.126 462.474 469.127C467.497 469.127 472.447 466.808 475.63 462.436L532.025 385.1C532.72 384.145 533.809 383.596 535.016 383.646L539.588 383.815L561.766 477.834H582.597L582.805 471.386L567.887 384.896C567.887 384.896 606.842 390.113 614.549 390.431C622.254 390.749 647.667 385.578 645.208 366.314C642.748 347.049 638.866 345.958 638.866 345.958C638.866 345.958 612.145 338.322 564.818 339.653Z" fill="white"/>
<path fill-rule="evenodd" clip-rule="evenodd" d="M467.295 471.649C472.318 471.649 477.268 469.33 480.451 464.958L536.846 387.622C537.541 386.667 538.632 386.118 539.837 386.168L602.761 388.496C611.687 388.832 619.273 381.825 619.605 372.854C619.937 363.882 612.933 356.34 603.962 356.01L541.04 353.682C529.033 353.254 517.631 358.776 510.56 368.495L454.165 445.829C448.884 453.087 450.484 463.255 457.743 468.536C460.631 470.636 463.979 471.648 467.295 471.649Z" fill="#FFF5D9"/>
<path fill-rule="evenodd" clip-rule="evenodd" d="M462.474 469.127C467.497 469.127 472.447 466.808 475.63 462.436L532.025 385.1C532.72 384.145 533.809 383.596 535.016 383.646L597.938 385.974C606.866 386.31 614.452 379.303 614.784 370.332C615.116 361.36 608.112 353.818 599.141 353.488L536.217 351.16C524.212 350.732 512.81 356.254 505.739 365.973L449.344 443.307C444.063 450.565 445.663 460.733 452.922 466.014C455.809 468.114 459.158 469.125 462.474 469.127V469.127Z" stroke="#555555" stroke-width="2" stroke-linecap="round" stroke-linejoin="round"/>
<path fill-rule="evenodd" clip-rule="evenodd" d="M570.617 481.445C571.722 481.445 572.845 481.333 573.969 481.096C582.755 479.252 588.385 470.637 586.543 461.851L570.331 384.476C585.053 386.137 604.201 388.312 612.186 389.314C622.042 390.551 630.176 388.55 636.369 383.352C645.382 375.787 645.918 364.86 646.12 360.746L646.148 360.205C646.666 351.243 640.597 351.655 631.634 351.136C623.19 350.671 615.122 348.585 613.858 356.766C602.96 355.44 580.447 352.901 566.584 351.337L560.938 350.701C553.618 349.87 546.287 352.632 541.329 358.081C536.368 363.533 534.309 371.097 535.822 378.315L554.725 468.524C556.33 476.184 563.087 481.445 570.617 481.445Z" fill="white"/>
<path fill-rule="evenodd" clip-rule="evenodd" d="M577.707 483.579C586.494 481.735 592.123 473.121 590.281 464.334L574.07 386.959C588.791 388.62 607.939 390.795 615.924 391.797C625.78 393.034 633.915 391.033 640.108 385.836C649.12 378.27 648.647 367.227 648.85 363.113L647.952 362.164C648.471 353.202 644.336 354.138 635.372 353.62C626.929 353.154 618.861 351.068 617.597 359.249C606.699 357.923 584.186 355.384 570.322 353.82L564.676 353.185C557.356 352.354 550.025 355.115 545.067 360.564C540.106 366.016 538.047 373.58 539.56 380.799L558.463 471.008C560.069 478.667 566.825 483.928 574.355 483.928C575.46 483.928 576.584 483.816 577.707 483.579Z" fill="#FFF5D9"/>
<path fill-rule="evenodd" clip-rule="evenodd" d="M611.925 201.275C611.925 199.668 613.227 198.367 614.831 198.367C616.438 198.367 617.739 199.668 617.739 201.275C617.739 202.881 616.438 204.181 614.831 204.181C613.227 204.181 611.925 202.881 611.925 201.275ZM590.752 201.275C590.752 199.668 592.054 198.367 593.658 198.367C595.265 198.367 596.566 199.668 596.566 201.275C596.566 202.881 595.265 204.181 593.658 204.181C592.054 204.181 590.752 202.881 590.752 201.275ZM602.96 218.402C597.983 218.402 593.946 214.368 593.946 209.388H611.975C611.975 214.368 607.94 218.402 602.96 218.402Z" fill="#555555"/>
<path d="M595.285 190.001C593.509 189.839 590.278 192.1 589.631 195.815M602.96 218.402C597.983 218.402 593.946 214.368 593.946 209.388H611.975C611.975 214.368 607.94 218.402 602.96 218.402ZM620.999 196.987C620.999 196.987 621.827 190.623 616.99 189.415L620.999 196.987Z" stroke="#555555" stroke-width="2" stroke-linecap="round" stroke-linejoin="round"/>
<path fill-rule="evenodd" clip-rule="evenodd" d="M609.189 180.924C606.628 185.072 598.627 195.814 583.897 192.435C571.247 189.535 565.036 180.817 564.823 169.161C564.608 157.505 575.137 144.532 589.658 145.446C604.179 146.36 611.442 157.485 612.261 167.678C617.617 163.163 624.171 168.511 623.033 172.217" fill="#B67BF2"/>
<path d="M609.189 180.924C606.628 185.072 598.627 195.814 583.897 192.435C571.247 189.535 565.036 180.817 564.823 169.161C564.608 157.505 575.137 144.532 589.658 145.446C604.179 146.36 611.442 157.485 612.261 167.678C617.617 163.163 624.171 168.511 623.033 172.217" stroke="#555555" stroke-width="2" stroke-linecap="round" stroke-linejoin="round"/>
<path fill-rule="evenodd" clip-rule="evenodd" d="M584.685 259.078C579.047 266.288 568.998 276.7 568.479 283.685C567.484 297.074 574.074 313.033 572.268 324.095C570.462 335.157 557.964 346.958 557.05 352.569C556.136 358.179 553.49 378.744 596.743 388.328C639.997 397.916 646.219 371.924 645.208 366.313C644.194 360.702 629.612 336.737 628.709 319.354C627.806 301.971 633.589 288.17 632.955 280.962" fill="white"/>
<path fill-rule="evenodd" clip-rule="evenodd" d="M569.31 351.538C563.368 350.489 558.618 349.196 553.256 351.136C547.894 353.077 543.973 356.015 546.07 362.163C548.166 368.313 561.819 381.237 573.952 380.89C586.085 380.545 582.939 367.789 582.939 367.789L569.31 351.538Z" fill="white"/>
<path fill-rule="evenodd" clip-rule="evenodd" d="M571.636 354.443C565.694 353.394 560.944 352.099 555.58 354.04C550.219 355.982 546.298 358.92 548.395 365.068C550.492 371.216 564.144 384.14 576.278 383.795C588.411 383.45 585.265 370.692 585.265 370.692L571.636 354.443Z" fill="#F2EAC7"/>
<path fill-rule="evenodd" clip-rule="evenodd" d="M640.526 346.317C644.642 355.929 649.015 364.099 649.553 367.081C650.565 372.694 644.343 398.683 601.088 389.098C557.836 379.512 562.799 358.648 563.713 353.039C564.186 350.139 567.626 346.113 571.213 340.859C609.743 338.483 628.852 342.882 640.526 346.317Z" fill="#FFF5D9"/>
<path fill-rule="evenodd" clip-rule="evenodd" d="M635.932 319.354C636.386 328.079 640.287 338.462 644.186 347.351C632.887 344.166 608.507 339.143 571.213 340.859C574.78 335.708 578.56 329.806 579.492 324.095C581.298 313.033 574.709 297.075 575.703 283.685C576.221 276.702 586.27 266.288 591.909 259.078C591.909 259.078 602.621 251.249 618.801 256.445C634.984 261.641 640.18 280.962 640.18 280.962C640.814 288.172 635.029 301.971 635.932 319.354Z" fill="#FFF5D9"/>
<path d="M584.685 259.078C579.047 266.288 568.997 276.7 568.479 283.685C567.484 297.073 574.074 313.033 572.268 324.095C570.462 335.157 557.964 346.958 557.05 352.569C556.136 358.179 551.939 374.686 595.191 384.27C638.445 393.858 645.61 372.495 645.009 365.516C643.013 342.36 629.612 336.737 628.709 319.354C627.806 301.971 633.589 288.17 632.955 280.962" stroke="#555555" stroke-width="2" stroke-linecap="round" stroke-linejoin="round"/>
<path fill-rule="evenodd" clip-rule="evenodd" d="M609.376 317.947H645.374C648.901 317.947 652.206 316.231 654.236 313.347C656.264 310.463 656.765 306.773 655.574 303.454C649.141 285.511 637.71 254.501 633.442 248.431C627.459 239.925 603.869 258.722 609.844 258.139C612.43 257.904 614.184 258.724 615.714 260.897C617.487 263.772 623.675 279.526 629.886 296.275H609.376C603.393 296.275 598.54 301.128 598.54 307.111C598.54 313.094 603.393 317.947 609.376 317.947Z" fill="white"/>
<path fill-rule="evenodd" clip-rule="evenodd" d="M649.632 319.503C653.159 319.503 656.465 317.787 658.495 314.903C660.523 312.018 661.023 308.329 659.833 305.009C653.4 287.066 641.969 256.057 637.701 249.987C631.717 241.481 608.128 260.278 614.103 259.694C616.689 259.46 618.443 260.279 619.972 262.452C621.746 265.327 627.617 280.347 633.828 297.096L607.699 297.612C601.716 297.612 602.798 302.683 602.798 308.666C602.798 314.65 607.651 319.503 613.635 319.503H649.632Z" fill="#FFF5D9"/>
<path d="M615.714 260.897C617.488 263.772 623.676 279.524 629.887 296.275H609.377C603.391 296.275 598.54 301.126 598.54 307.111C598.54 313.094 603.391 317.947 609.377 317.947H645.374C648.901 317.947 652.207 316.231 654.237 313.347C656.265 310.463 656.765 306.773 655.575 303.452C649.142 285.511 637.711 254.502 633.443 248.432C627.459 239.925 618.124 235.603 607.827 236.561" stroke="#555555" stroke-width="2" stroke-linecap="round" stroke-linejoin="round"/>
<path fill-rule="evenodd" clip-rule="evenodd" d="M647.755 285.706C643.691 279.159 633.959 278.52 626.257 278.137C617.74 277.714 626.257 268.682 626.257 268.682H636.303L643.755 271.639L647.755 285.706Z" fill="#B67BF2"/>
<path fill-rule="evenodd" clip-rule="evenodd" d="M644.61 267.916C644.61 267.916 637.985 276.433 626.26 276.527C614.535 276.618 601.946 265.198 602.403 253.396C602.859 241.595 611.484 229.155 625.193 228.839C629.607 228.738 633.387 229.735 636.553 231.312L650.117 241.976L644.61 267.916Z" fill="#B67BF2"/>
<path d="M644.61 267.916C644.61 267.916 637.985 276.433 626.26 276.527C614.535 276.618 601.946 265.198 602.403 253.396C602.859 241.595 611.484 229.155 625.193 228.839C629.607 228.738 633.387 229.735 636.553 231.312" stroke="#555555" stroke-width="2" stroke-linecap="round" stroke-linejoin="round"/>
<path fill-rule="evenodd" clip-rule="evenodd" d="M636.256 203.906C632.27 202.613 639.247 181.743 624.977 171.172C624.977 171.172 624.91 166.33 627.395 165.444C629.88 164.559 648.185 180.266 648.185 180.266L651.527 192.904L649.175 203.892C649.175 203.892 640.824 205.389 636.256 203.906Z" fill="#B67BF2"/>
<path fill-rule="evenodd" clip-rule="evenodd" d="M569.31 351.538C563.341 350.973 559.027 349.658 552.207 351.538C545.385 353.418 546.917 374.825 546.917 374.825L564.402 380.897L573.217 380.077C573.217 380.077 574.911 363.348 574.308 362.163C573.707 360.98 569.31 351.538 569.31 351.538Z" fill="white"/>
<path fill-rule="evenodd" clip-rule="evenodd" d="M571.13 354.634C565.161 354.068 560.846 352.753 554.026 354.634C547.204 356.514 542.525 363.94 542.525 363.94L545.496 383.104L566.221 383.994L575.036 383.172C575.036 383.172 576.73 366.445 576.127 365.26C575.526 364.075 571.13 354.634 571.13 354.634Z" fill="#FFF5D9"/>
<path fill-rule="evenodd" clip-rule="evenodd" d="M648.85 371.197C644.186 383.074 633.109 394.175 613 391.408C592.891 388.641 568.984 384.674 568.984 384.674L562.861 365.804L585.246 367.569L648.85 371.197Z" fill="#FFF5D9"/>
<path d="M601.903 355.355C590.599 354.045 576.416 352.447 566.583 351.336L560.937 350.701C553.617 349.87 546.286 352.631 541.328 358.08C536.367 363.533 534.308 371.096 535.822 378.315L554.724 468.524C556.332 476.183 563.088 481.444 570.616 481.444C571.723 481.444 572.845 481.332 573.97 481.096C582.755 479.253 588.385 470.637 586.542 461.851L570.333 384.475C585.052 386.137 604.2 388.311 612.185 389.315C622.041 390.551 630.178 388.55 636.369 383.352C645.381 375.786 645.258 368.019 644.186 360.637" stroke="#555555" stroke-width="2" stroke-linecap="round" stroke-linejoin="round"/>
<path fill-rule="evenodd" clip-rule="evenodd" d="M552.627 472.866H584.543C586.784 472.866 588.599 474.681 588.599 476.919V481.084C588.599 484.275 586.011 486.863 582.82 486.863H552.627V472.866Z" fill="white"/>
<path fill-rule="evenodd" clip-rule="evenodd" d="M552.627 472.866H584.543C586.784 472.866 588.599 474.681 588.599 476.919V481.084C588.599 484.275 586.011 486.863 582.82 486.863H552.627V472.866V472.866Z" stroke="#555555" stroke-width="2" stroke-linecap="round" stroke-linejoin="round"/>
<path fill-rule="evenodd" clip-rule="evenodd" d="M560.068 470.193L555.788 471.02C541.498 472.156 538.76 483.223 538.76 483.223C538.76 485.233 542.968 486.862 544.978 486.862H570.237V479.378C570.237 473.537 565.909 470.193 560.068 470.193Z" fill="white"/>
<path d="M570.612 475.022C568.187 471.679 565.075 470.239 558.531 470.732C545.172 471.74 538.76 477.621 538.76 483.223C538.76 485.209 540.391 486.864 542.399 486.864H570.237" stroke="#555555" stroke-width="2" stroke-linecap="round" stroke-linejoin="round"/>
<path fill-rule="evenodd" clip-rule="evenodd" d="M456.546 475.623C456.546 475.623 435.082 457.574 430.534 453.98C425.985 450.384 422.022 446.169 425.02 442.952C431.228 436.293 447.631 448.274 452.935 453.129C455.903 455.842 462.757 459.788 463.998 460.691C465.24 461.594 470.128 467.016 467.664 470.994C464.467 476.158 458.908 477.355 456.546 475.623Z" fill="white"/>
<path fill-rule="evenodd" clip-rule="evenodd" d="M456.546 475.623C456.546 475.623 435.082 457.574 430.534 453.98C425.985 450.384 422.022 446.169 425.02 442.952C431.228 436.293 448.099 447.583 453.405 452.435C456.371 455.148 463.902 458.757 465.145 459.66C466.385 460.563 470.128 467.015 467.664 470.994C464.467 476.158 458.908 477.355 456.546 475.623V475.623Z" stroke="#555555" stroke-width="2" stroke-linecap="round" stroke-linejoin="round"/>
<path fill-rule="evenodd" clip-rule="evenodd" d="M421.891 445.568C418.81 448.705 423.179 453.191 427.727 456.785C432.276 460.379 454.139 474.426 454.139 474.426C456.502 476.158 460.726 479.395 463.525 475.645C465.985 472.349 459.435 467.814 458.194 466.911C456.951 466.008 448.925 461.468 445.826 458.911C440.005 454.109 425 442.404 421.891 445.568Z" fill="#EEEEEE"/>
<path fill-rule="evenodd" clip-rule="evenodd" d="M421.891 445.568C418.81 448.705 423.179 453.191 427.727 456.785C432.276 460.379 454.139 474.426 454.139 474.426C456.502 476.158 460.726 479.395 463.525 475.645C465.985 472.349 459.435 467.814 458.194 466.911C456.951 466.008 448.925 461.468 445.826 458.911C440.005 454.109 425 442.404 421.891 445.568Z" stroke="#555555" stroke-width="2" stroke-linecap="round" stroke-linejoin="round"/>
<path fill-rule="evenodd" clip-rule="evenodd" d="M592.038 299.037H606.987C610.977 299.037 614.212 302.271 614.212 306.261V308.61C614.212 312.602 610.977 315.835 606.987 315.835H592.038C588.049 315.835 584.814 312.602 584.814 308.61V306.261C584.814 302.271 588.049 299.037 592.038 299.037Z" fill="#FFF5D9"/>
<path fill-rule="evenodd" clip-rule="evenodd" d="M592.038 299.037H606.987C610.977 299.037 614.212 302.271 614.212 306.261V308.61C614.212 312.602 610.977 315.835 606.987 315.835H592.038C588.049 315.835 584.814 312.602 584.814 308.61V306.261C584.814 302.271 588.049 299.037 592.038 299.037Z" stroke="#555555" stroke-width="2" stroke-linecap="round" stroke-linejoin="round"/>
<path fill-rule="evenodd" clip-rule="evenodd" d="M591.898 309.873C596.092 309.873 599.729 312.255 601.53 315.741C602.702 318.007 600.956 320.709 598.405 320.709H585.391C582.839 320.709 581.094 318.007 582.264 315.741C584.067 312.255 587.704 309.873 591.898 309.873Z" fill="white"/>
<path fill-rule="evenodd" clip-rule="evenodd" d="M591.898 309.873C596.092 309.873 599.729 312.255 601.53 315.741C602.702 318.007 600.956 320.709 598.405 320.709H585.391C582.839 320.709 581.094 318.007 582.264 315.741C584.067 312.255 587.704 309.873 591.898 309.873Z" stroke="#555555" stroke-width="2" stroke-linecap="round" stroke-linejoin="round"/>
<path fill-rule="evenodd" clip-rule="evenodd" d="M585.555 317.548H585.604C588.096 317.521 590.098 315.479 590.072 312.986C590.054 311.31 591.781 308.609 592.763 308.056C595.115 307.899 596.973 305.943 596.973 303.552C596.973 301.058 594.952 299.037 592.458 299.037C590.128 299.037 587.818 300.128 585.779 302.186C582.908 305.089 581.004 309.465 581.042 313.08C581.067 315.556 583.084 317.548 585.555 317.548Z" fill="#FFF5D9"/>
<path fill-rule="evenodd" clip-rule="evenodd" d="M597.997 299.037H592.458C590.128 299.037 587.818 300.128 585.779 302.186C582.908 305.089 581.004 309.465 581.042 313.08C581.067 315.556 583.084 317.548 585.555 317.548H585.604C588.096 317.521 590.098 315.479 590.072 312.986C590.054 311.31 591.781 308.609 592.763 308.056L597.997 299.037Z" stroke="#555555" stroke-width="2" stroke-linecap="round" stroke-linejoin="round"/>
<path fill-rule="evenodd" clip-rule="evenodd" d="M600.986 236.43C603.195 238.044 603.195 242.588 602.96 244.308C602.96 244.308 603.87 241.79 604.798 240.307C605.417 239.318 606.457 237.773 607.918 235.671L600.986 236.43Z" fill="#B67BF2"/>
<path fill-rule="evenodd" clip-rule="evenodd" d="M543.013 232.787L547.241 213.961C547.967 210.73 551.113 208.648 554.371 209.244L558.646 210.024C562.154 210.663 564.39 214.132 563.525 217.591L562.277 222.583C561.982 223.762 561.48 224.876 560.79 225.879L556.437 234.497L543.013 232.787Z" fill="#FFF5D9"/>
<path fill-rule="evenodd" clip-rule="evenodd" d="M543.013 232.787L547.241 213.961C547.967 210.73 551.113 208.648 554.371 209.244L558.646 210.024C562.154 210.663 564.39 214.132 563.525 217.591L562.277 222.583C561.982 223.762 561.48 224.876 560.79 225.879L556.437 234.497C556.437 234.497 553.416 236.48 549.199 235.787C544.981 235.095 543.013 232.787 543.013 232.787V232.787Z" stroke="#555555" stroke-width="2" stroke-linecap="round" stroke-linejoin="round"/>
<path fill-rule="evenodd" clip-rule="evenodd" d="M558.112 231.18C559.279 229.716 565.729 224.906 566.382 223.212C567.036 221.516 566.886 219.156 564.8 218.531C562.712 217.904 559.969 217.054 559.008 216.942C558.047 216.83 555.188 216.833 554.719 219.463C554.249 222.092 555.976 223.685 557.858 223.913L556.08 227.064L555.288 230.944L558.112 231.18Z" fill="#FFF5D9"/>
<path d="M557.858 223.912C555.976 223.685 553.867 222.009 554.748 219.314C555.749 216.256 558.415 216.89 559.374 217.002C560.335 217.114 562.627 217.698 564.713 218.321C566.8 218.945 567.037 221.517 566.381 223.211C565.728 224.907 562.282 228.866 558.113 231.18L556.746 233.885" stroke="#555555" stroke-width="2" stroke-linecap="round" stroke-linejoin="round"/>
<path fill-rule="evenodd" clip-rule="evenodd" d="M633.622 213.91L636.38 214.362C639.134 214.654 641.605 212.659 641.897 209.903C642.19 207.148 640.192 204.68 637.438 204.387L633.028 203.892C633.028 203.892 629.71 213.265 629.932 213.347C630.152 213.43 633.622 213.91 633.622 213.91Z" fill="#FFF5D9"/>
<path d="M628.063 296.275H633.073M637.438 204.386C640.192 204.679 642.19 207.147 641.897 209.903C641.604 212.658 639.134 214.655 636.379 214.361L633.621 213.909L637.438 204.386ZM637.438 204.386C629.921 202.901 639.246 181.742 624.977 171.171L637.438 204.386ZM623.033 172.216C624.552 168.44 627.572 164.559 631.635 161.75L623.033 172.216ZM556.062 264.274V270.377V264.274Z" stroke="#555555" stroke-width="2" stroke-linecap="round" stroke-linejoin="round"/>
<path fill-rule="evenodd" clip-rule="evenodd" d="M703.887 335.156H277.649V320.708H703.887V335.156Z" fill="white"/>
<path fill-rule="evenodd" clip-rule="evenodd" d="M833.926 335.156H703.887V320.708H833.926V335.156ZM833.926 486.862H703.887V335.156H833.926V486.862Z" fill="#EEEEEE"/>
<path fill-rule="evenodd" clip-rule="evenodd" d="M703.887 486.862H689.439V335.156H703.887V486.862ZM422.136 486.862H292.098V335.156H422.136V486.862Z" fill="white"/>
<path fill-rule="evenodd" clip-rule="evenodd" d="M422.137 335.157H292.098L422.137 486.863V335.157Z" fill="#EEEEEE"/>
<path fill-rule="evenodd" clip-rule="evenodd" d="M292.098 486.862H277.649V335.156H292.098V486.862Z" fill="white"/>
<path d="M844.763 486.863H260.634M703.887 335.156H277.649V320.708H703.887V335.156ZM833.926 335.156H703.887V320.708H833.926V335.156ZM833.926 486.862H703.887V335.156H833.926V486.862ZM703.887 486.862H689.439V335.156H703.887V486.862ZM422.136 486.862H292.097V335.156H422.136V486.862ZM292.097 486.862H277.649V335.156H292.097V486.862ZM431.167 486.863H268.618H431.167Z" stroke="#555555" stroke-width="2" stroke-linecap="round" stroke-linejoin="round"/>
<path fill-rule="evenodd" clip-rule="evenodd" d="M675.577 299.037H693.638L691.832 320.709H677.383L675.577 299.037Z" fill="white"/>
<path fill-rule="evenodd" clip-rule="evenodd" d="M675.577 299.037H693.638L691.832 320.709H677.383L675.577 299.037Z" stroke="#555555" stroke-width="2" stroke-linecap="round" stroke-linejoin="round"/>
<path fill-rule="evenodd" clip-rule="evenodd" d="M675.577 293.619H693.638L695.444 299.037H673.771L675.577 293.619Z" fill="white"/>
<path fill-rule="evenodd" clip-rule="evenodd" d="M675.577 293.619H693.638L695.444 299.037H673.771L675.577 293.619Z" stroke="#555555" stroke-width="2" stroke-linecap="round" stroke-linejoin="round"/>
<path fill-rule="evenodd" clip-rule="evenodd" d="M406.703 311.174H521.753V315.29C521.753 318.283 519.326 320.708 516.335 320.708H412.121C409.128 320.708 406.703 318.283 406.703 315.29V311.174Z" fill="#EEEEEE"/>
<path fill-rule="evenodd" clip-rule="evenodd" d="M406.703 311.174H521.753V315.29C521.753 318.283 519.326 320.708 516.335 320.708H412.121C409.128 320.708 406.703 318.283 406.703 315.29V311.174V311.174Z" stroke="#555555" stroke-width="2" stroke-linecap="round" stroke-linejoin="round"/>
<path fill-rule="evenodd" clip-rule="evenodd" d="M509.342 311.174H573.218V315.29C573.218 318.283 570.79 320.708 567.799 320.708H514.76C511.767 320.708 509.342 318.283 509.342 315.29V311.174Z" fill="#EEEEEE"/>
<path fill-rule="evenodd" clip-rule="evenodd" d="M509.342 311.174H573.218V315.29C573.218 318.283 570.79 320.708 567.799 320.708H514.76C511.767 320.708 509.342 318.283 509.342 315.29V311.174Z" stroke="#555555" stroke-width="2" stroke-linecap="round" stroke-linejoin="round"/>
<path fill-rule="evenodd" clip-rule="evenodd" d="M388.981 227.746H473.77C476.803 227.746 479.512 229.641 480.556 232.489L509.341 311.174H409.166L382.196 237.454C380.473 232.74 383.962 227.746 388.981 227.746Z" fill="#EEEEEE"/>
<path fill-rule="evenodd" clip-rule="evenodd" d="M388.981 227.746H478.82L509.341 311.174H409.166L382.196 237.454C380.473 232.74 383.962 227.746 388.981 227.746Z" stroke="#555555" stroke-width="2" stroke-linecap="round" stroke-linejoin="round"/>
<path fill-rule="evenodd" clip-rule="evenodd" d="M378.224 227.746C374.46 227.746 371.843 231.49 373.136 235.026L399.693 307.619C400.473 309.754 402.507 311.174 404.781 311.174H509.341L478.804 227.746H378.224Z" fill="white"/>
<path fill-rule="evenodd" clip-rule="evenodd" d="M378.224 227.746C374.46 227.746 371.843 231.49 373.136 235.026L399.693 307.619C400.473 309.754 402.507 311.174 404.781 311.174H509.341L478.804 227.746H378.224V227.746Z" stroke="#555555" stroke-width="2" stroke-linecap="round" stroke-linejoin="round"/>
<path fill-rule="evenodd" clip-rule="evenodd" d="M478.804 227.746L509.341 311.174H505.16C502.763 311.174 500.621 309.676 499.796 307.426L473.44 235.422C472.076 231.696 474.836 227.746 478.804 227.746Z" stroke="#555555" stroke-width="2" stroke-linecap="round" stroke-linejoin="round"/>
<path fill-rule="evenodd" clip-rule="evenodd" d="M433.71 261.152C440.39 261.152 447.646 266.566 449.918 273.245C452.19 279.924 448.617 285.339 441.938 285.339C435.258 285.339 428.002 279.924 425.73 273.245C423.458 266.566 427.031 261.152 433.71 261.152ZM434.411 263.21C428.868 263.21 425.903 267.703 427.789 273.245C429.674 278.787 435.695 283.281 441.238 283.281C446.78 283.281 449.745 278.787 447.86 273.245C445.974 267.703 439.953 263.21 434.411 263.21ZM442.307 275.561C442.628 275.561 442.971 275.776 443.14 276.065L443.209 276.215L443.464 276.966C443.569 277.276 443.434 277.535 443.157 277.602L443.007 277.62H434.073C433.751 277.62 433.409 277.405 433.24 277.116L433.171 276.966L432.916 276.215C432.811 275.905 432.946 275.646 433.223 275.578L433.373 275.561H442.307ZM434.206 271.959H443.14C443.462 271.959 443.804 272.174 443.973 272.463L444.042 272.612L444.297 273.364C444.403 273.673 444.267 273.932 443.99 274L443.84 274.017H434.906C434.585 274.017 434.242 273.802 434.073 273.514L434.005 273.364L433.749 272.612C433.644 272.303 433.779 272.044 434.056 271.976L434.206 271.959H443.14H434.206ZM439.856 268.357C440.231 268.357 440.635 268.649 440.758 269.01L441.014 269.761C441.136 270.122 440.932 270.415 440.556 270.415H431.622C431.247 270.415 430.843 270.122 430.721 269.761L430.465 269.01C430.342 268.649 430.547 268.357 430.922 268.357H439.856Z" fill="#DDDDDD"/>
<path fill-rule="evenodd" clip-rule="evenodd" d="M283.594 66.8895L279.035 20.2697C278.826 18.1362 277.318 16.3333 275.223 15.7857C269.426 14.2695 256.232 12.056 234.497 14.9282C211.043 18.0277 200.321 29.744 196.611 35.0107C195.555 36.5088 195.388 38.4331 196.151 40.0939L206.868 63.3974L213.222 76.5368C213.222 76.5368 230.886 66.0733 283.594 66.8895Z" fill="#B67BF2"/>
<path fill-rule="evenodd" clip-rule="evenodd" d="M283.594 66.8895L279.035 20.2697C278.826 18.1362 277.318 16.3333 275.223 15.7857C269.426 14.2695 256.232 12.056 234.497 14.9282C211.043 18.0277 200.321 29.744 196.611 35.0107C195.555 36.5088 195.388 38.4331 196.151 40.0939L206.868 63.3974L213.222 76.5368C213.222 76.5368 230.886 66.0733 283.594 66.8895V66.8895Z" stroke="#555555" stroke-width="2" stroke-linecap="round" stroke-linejoin="round"/>
<path fill-rule="evenodd" clip-rule="evenodd" d="M139.403 130.749C138.676 130.749 137.938 130.597 137.235 130.281C134.584 129.091 133.409 125.993 134.607 123.359C135.674 121.012 145.438 100.313 159.501 95.8394C162.266 94.9473 165.236 96.4725 166.121 99.2247C167.008 101.979 165.484 104.923 162.713 105.804C154.545 108.405 146.41 122.825 144.203 127.67C143.324 129.603 141.407 130.749 139.403 130.749Z" fill="#FFF5D9"/>
<path fill-rule="evenodd" clip-rule="evenodd" d="M139.403 130.749C138.676 130.749 137.938 130.597 137.235 130.281C134.584 129.091 133.409 125.993 134.607 123.359C135.674 121.012 145.438 100.313 159.501 95.8394C162.266 94.9473 165.236 96.4725 166.121 99.2247C167.008 101.979 165.484 104.923 162.713 105.804C154.545 108.405 146.41 122.825 144.203 127.67C143.324 129.603 141.407 130.749 139.403 130.749V130.749ZM190.889 174.705C204.982 188.91 203.201 223.317 196.379 235.943C189.554 248.569 185.398 189.857 190.889 174.705V174.705Z" stroke="#555555" stroke-width="2" stroke-linecap="round" stroke-linejoin="round"/>
<path fill-rule="evenodd" clip-rule="evenodd" d="M190.888 174.705C204.982 188.91 203.201 223.317 196.379 235.943C189.554 248.569 185.398 189.857 190.888 174.705Z" fill="#555555"/>
<path fill-rule="evenodd" clip-rule="evenodd" d="M332.32 224.935C339.54 211.863 339.652 197.8 332.569 193.529C325.486 189.252 313.89 196.384 306.667 209.456C299.445 222.527 299.335 236.591 306.418 240.865C313.501 245.138 325.1 238.007 332.32 224.935V224.935Z" stroke="#555555" stroke-width="2" stroke-linecap="round" stroke-linejoin="round"/>
<path fill-rule="evenodd" clip-rule="evenodd" d="M332.32 224.935C339.54 211.863 339.652 197.8 332.569 193.529C325.486 189.252 313.89 196.384 306.667 209.456C299.445 222.527 299.335 236.591 306.418 240.865C313.501 245.138 325.1 238.007 332.32 224.935Z" fill="#555555"/>
<path fill-rule="evenodd" clip-rule="evenodd" d="M293.962 372.507C289.271 372.507 285.293 368.942 284.903 364.231L281.978 328.855C281.812 326.867 282.319 324.88 283.419 323.207L330.578 240.672L267.785 174.93C265.167 171.503 279.982 159.062 282.855 155.842C286.807 151.406 293.598 151.841 297.004 156.302L356.479 234.175C358.793 237.202 358.941 241.341 356.848 244.523L305.709 322.331C302.248 327.596 300.652 333.849 301.169 340.112L303.041 362.763C303.452 367.721 299.724 372.072 294.716 372.476C294.461 372.497 294.212 372.507 293.962 372.507Z" fill="#FFF5D9"/>
<path fill-rule="evenodd" clip-rule="evenodd" d="M293.962 372.507C289.271 372.507 285.293 368.942 284.903 364.231L281.978 328.855C281.812 326.867 282.319 324.88 283.419 323.207L330.578 240.672L267.785 174.93C265.167 171.503 279.982 159.062 282.855 155.842C286.807 151.406 293.598 151.841 297.004 156.302L356.479 234.175C358.793 237.202 358.941 241.341 356.848 244.523L305.709 322.331C302.248 327.596 300.652 333.849 301.169 340.112L303.041 362.763C303.452 367.721 299.724 372.072 294.716 372.476C294.461 372.497 294.212 372.507 293.962 372.507V372.507Z" stroke="#555555" stroke-width="2" stroke-linecap="round" stroke-linejoin="round"/>
<path fill-rule="evenodd" clip-rule="evenodd" d="M142.657 229.364C139.478 227.846 137.275 224.825 136.805 221.329L122.511 114.758C121.739 109.039 125.745 103.774 131.462 103.003C137.188 102.243 142.435 106.243 143.202 111.962L158.339 198.246L232.816 152.886C237.742 149.884 244.165 151.449 247.162 156.382C250.161 161.309 251.586 183.217 246.661 186.219L152.578 228.859C150.918 229.873 149.039 230.383 147.152 230.383C145.619 230.383 144.082 230.046 142.657 229.364Z" fill="#FFF5D9"/>
<path fill-rule="evenodd" clip-rule="evenodd" d="M147.152 230.383C145.619 230.383 144.082 230.046 142.657 229.364C139.478 227.846 137.275 224.825 136.805 221.329L122.511 114.758C121.739 109.039 125.745 103.774 131.462 103.003C137.188 102.243 142.435 106.243 143.202 111.962L158.339 198.246L232.816 152.886C237.742 149.884 244.165 151.449 247.162 156.382C250.161 161.309 251.586 183.217 246.661 186.219L152.578 228.859C150.918 229.873 149.039 230.383 147.152 230.383V230.383Z" stroke="#555555" stroke-width="2" stroke-linecap="round" stroke-linejoin="round"/>
<path fill-rule="evenodd" clip-rule="evenodd" d="M190.55 174.705C189.085 174.705 202.021 183.528 201.54 206.939L302.642 235.793C299.791 234.328 295.316 217.196 309.969 201.393C324.621 185.59 334.878 192.884 334.878 192.884L293.635 150.605C293.635 150.605 286.88 141.006 279.359 141.006C271.838 141.006 250.472 145.152 250.472 145.152C241.643 148.68 192.016 174.705 190.55 174.705ZM151.721 129.281L136.957 132.214L125.346 76.5401L140.11 73.6064L151.721 129.281Z" fill="white"/>
<path fill-rule="evenodd" clip-rule="evenodd" d="M151.721 129.281L136.957 132.214L125.346 76.5401L140.11 73.6064L151.721 129.281Z" stroke="#555555" stroke-width="2" stroke-linecap="round" stroke-linejoin="round"/>
<path fill-rule="evenodd" clip-rule="evenodd" d="M278.468 139.54C271.068 139.54 250.047 143.547 250.047 143.547C248.58 144.124 245.928 145.307 242.567 146.866H290.92C288.521 144.147 283.688 139.54 278.468 139.54ZM198.609 168.844H309.969L302.582 161.518H213.813C208.101 164.258 202.735 166.849 198.609 168.844Z" fill="#FFF5D9"/>
<path fill-rule="evenodd" clip-rule="evenodd" d="M329.522 190.092H329.978C329.835 190.083 329.677 190.089 329.522 190.092Z" fill="#FFFDBB"/>
<path fill-rule="evenodd" clip-rule="evenodd" d="M201.395 190.822H327.151C327.424 190.817 327.697 190.808 327.944 190.822H330.482L323.161 183.496H198.609C199.637 185.56 200.604 188.003 201.395 190.822Z" fill="#FFF5D9"/>
<path fill-rule="evenodd" clip-rule="evenodd" d="M202.948 209.25C202.025 210.868 201.057 212.553 200.074 214.265H303.713C304.854 211.879 305.041 209.421 307.132 206.94H202.536C202.549 207.67 202.58 208.383 202.564 209.145L202.948 209.25ZM298.247 234.778C297.72 233.152 298.34 230.612 298.247 227.452H192.64C191.228 229.87 189.801 232.312 188.352 234.778H298.247ZM176.63 256.756H297.6L298.166 250.615C298.205 250.221 298.213 249.826 298.247 249.43H181.016C179.544 251.906 178.081 254.348 176.63 256.756ZM161.978 277.269H291.718L292.386 269.943H166.524C164.949 272.515 163.43 274.965 161.978 277.269ZM153.186 299.247H294.634L295.316 291.921H156.42C155.181 294.449 154.125 296.882 153.186 299.247ZM147.325 319.76H290.25L290.92 312.434H148.655C148.052 315.081 147.616 317.533 147.325 319.76ZM147.51 336.544C147.51 336.544 222.103 342.85 274.802 334.412H147.325C147.419 335.759 147.51 336.544 147.51 336.544Z" fill="#FFFDBB"/>
<path d="M195.859 237.709C203.369 224.718 205.328 189.319 189.818 174.705M261.615 142.885C273.135 139.307 282.095 136.054 291.054 147.439C300.014 158.824 331.948 192.288 334.878 195.296L261.615 142.885Z" stroke="#555555" stroke-width="2" stroke-linecap="round" stroke-linejoin="round"/>
<path fill-rule="evenodd" clip-rule="evenodd" d="M295.169 197.527L297.241 216.388C298.444 227.318 298.568 238.344 297.613 249.297L290.427 331.826C238.691 341.297 147.721 335.7 147.721 335.7C147.721 335.7 143.409 311.165 163.242 278.453C183.075 245.738 216.703 182.031 216.703 182.031" fill="white"/>
<path fill-rule="evenodd" clip-rule="evenodd" d="M169.221 338.095C168.786 338.081 168.341 338.067 167.922 338.054C168.342 338.067 168.785 338.081 169.221 338.095ZM167.839 338.128C165.769 338.093 163.836 338.056 161.978 338.021C163.836 338.056 165.769 338.093 167.839 338.128ZM173.655 338.094C173.194 338.081 172.726 338.067 172.279 338.056C172.726 338.067 173.192 338.081 173.655 338.094ZM271.872 336.4C269.472 336.552 267.027 336.692 264.546 336.819C267.027 336.692 269.472 336.552 271.872 336.4ZM263.08 336.532C261.626 336.586 260.156 336.637 258.685 336.687C260.156 336.637 261.626 336.588 263.08 336.532ZM181.026 338.094C180.533 338.081 180.04 338.069 179.561 338.056C180.041 338.069 180.533 338.081 181.026 338.094ZM154.094 336.618C153.974 336.612 153.858 336.607 153.744 336.601C153.859 336.607 153.972 336.612 154.094 336.618ZM152.568 336.616C152.49 336.612 152.413 336.607 152.339 336.603C152.414 336.607 152.49 336.612 152.568 336.616ZM161.644 338.091C161.367 338.081 161.111 338.069 160.846 338.059C161.111 338.069 161.367 338.081 161.644 338.091ZM155.635 338.086C155.462 338.079 155.298 338.07 155.133 338.063C155.3 338.07 155.461 338.079 155.635 338.086ZM158.641 338.089C158.415 338.079 158.204 338.07 157.989 338.06C158.205 338.07 158.414 338.079 158.641 338.089ZM229.38 338.048C227.912 338.068 226.445 338.086 224.984 338.102C226.448 338.086 227.912 338.068 229.38 338.048ZM224.984 338.053C223.517 338.069 222.047 338.083 220.588 338.097C222.047 338.083 223.517 338.069 224.984 338.053ZM220.588 338.043C216.117 338.086 211.706 338.105 207.401 338.106C211.706 338.105 216.114 338.086 220.588 338.043ZM248.428 338.026C246.966 338.06 245.501 338.092 244.032 338.123C245.501 338.092 246.963 338.06 248.428 338.026ZM235.241 338.04C233.774 338.065 232.311 338.087 230.845 338.109C232.311 338.087 233.774 338.065 235.241 338.04ZM150.993 336.609H150.984H150.993ZM242.567 338.034C241.104 338.063 239.637 338.089 238.171 338.116C239.637 338.089 241.104 338.063 242.567 338.034ZM185.422 338.091C184.929 338.081 184.437 338.069 183.957 338.059C184.439 338.069 184.928 338.081 185.422 338.091ZM200.074 338.083C198.593 338.078 197.136 338.073 195.679 338.067C197.136 338.073 198.593 338.078 200.074 338.083ZM258.685 336.542C257.228 336.589 255.759 336.633 254.289 336.677C255.759 336.633 257.228 336.589 258.685 336.542ZM188.352 338.089C187.859 338.081 187.37 338.07 186.887 338.06C187.37 338.07 187.859 338.081 188.352 338.089ZM252.824 336.552C251.364 336.593 249.898 336.631 248.428 336.667C249.898 336.631 251.364 336.593 252.824 336.552ZM194.213 338.086C192.734 338.079 191.268 338.072 189.818 338.063C191.272 338.072 192.73 338.079 194.213 338.086ZM204.47 338.078C202.99 338.077 201.532 338.074 200.074 338.071C201.532 338.074 202.99 338.077 204.47 338.078ZM215.42 182.359C215.42 182.359 215.171 182.65 214.727 183.169H222.053L215.42 182.359ZM145.179 337.046C145.179 337.046 145.128 336.724 145.075 336.173C145.128 336.725 145.179 337.046 145.179 337.046Z" fill="#FFFDBB"/>
<path fill-rule="evenodd" clip-rule="evenodd" d="M214.566 183.496C213.742 184.925 212.28 187.461 210.331 190.822H263.08L222.765 183.496H214.566ZM198.609 214.265H296.781L295.916 206.939H202.863C201.515 209.265 200.092 211.718 198.609 214.265Z" fill="#FFF5D9"/>
<path fill-rule="evenodd" clip-rule="evenodd" d="M192.748 227.452C191.304 229.87 189.838 232.313 188.352 234.778C189.838 232.313 191.304 229.87 192.748 227.452Z" fill="#FFFDBB"/>
<path fill-rule="evenodd" clip-rule="evenodd" d="M188.451 234.607L188.352 234.778H298.247C298.239 232.334 298.166 229.894 298.039 227.452H192.617C191.249 229.814 189.858 232.202 188.451 234.607Z" fill="#FFF5D9"/>
<path fill-rule="evenodd" clip-rule="evenodd" d="M297.537 248.342C297.518 248.58 297.512 248.817 297.491 249.053C297.512 248.817 297.518 248.58 297.537 248.342ZM176.63 256.756C178.086 254.349 179.552 251.901 181.026 249.43C179.552 251.901 178.086 254.346 176.63 256.756Z" fill="#FFFDBB"/>
<path fill-rule="evenodd" clip-rule="evenodd" d="M180.878 249.66C179.454 252.053 178.034 254.424 176.63 256.756H297.6L298.169 250.617C298.205 250.221 298.215 249.826 298.247 249.43H181.016C180.969 249.508 180.925 249.584 180.878 249.66Z" fill="#FFF5D9"/>
<path fill-rule="evenodd" clip-rule="evenodd" d="M166.374 269.943C164.851 272.515 163.382 274.965 161.978 277.269H161.98C163.385 274.965 164.853 272.515 166.374 269.943ZM294.392 277.269L294.775 269.943L294.392 277.269Z" fill="#FFFDBB"/>
<path fill-rule="evenodd" clip-rule="evenodd" d="M161.978 277.269H294.634L295.316 269.943H166.626C165.016 272.515 163.463 274.965 161.978 277.269Z" fill="#FFF5D9"/>
<path fill-rule="evenodd" clip-rule="evenodd" d="M291.462 299.247L291.844 291.921L291.462 299.247Z" fill="#FFFDBB"/>
<path fill-rule="evenodd" clip-rule="evenodd" d="M153.186 299.247H294.631L295.316 291.921H156.42C155.181 294.449 154.125 296.882 153.186 299.247Z" fill="#FFF5D9"/>
<path fill-rule="evenodd" clip-rule="evenodd" d="M148.058 313.165V313.168V313.166V313.165ZM290.044 319.76L290.331 313.899L290.044 319.76Z" fill="#FFFDBB"/>
<path fill-rule="evenodd" clip-rule="evenodd" d="M148.655 312.434V312.439C148.052 315.083 147.616 317.533 147.325 319.76H290.248L290.753 314.265L290.92 312.434H148.655Z" fill="#FFF5D9"/>
<path fill-rule="evenodd" clip-rule="evenodd" d="M238.044 338.053C237.641 338.069 237.238 338.084 236.833 338.097C237.238 338.084 237.641 338.069 238.044 338.053ZM248.322 338.04C247.905 338.063 247.487 338.086 247.068 338.11C247.487 338.086 247.905 338.063 248.322 338.04ZM274.427 336.57H274.424C274.189 336.598 273.949 336.621 273.713 336.649C273.951 336.621 274.192 336.598 274.427 336.57ZM243.927 338.046C243.509 338.067 243.091 338.084 242.672 338.103C243.091 338.084 243.509 338.067 243.927 338.046ZM258.537 336.563C258.147 336.593 257.76 336.627 257.367 336.656C257.76 336.627 258.147 336.593 258.537 336.563ZM254.164 336.568C253.759 336.596 253.355 336.624 252.949 336.651C253.355 336.624 253.759 336.596 254.164 336.568ZM264.286 336.564C263.97 336.595 263.658 336.626 263.34 336.655C263.658 336.626 263.97 336.595 264.286 336.564ZM171.994 338.09C171.657 338.08 171.336 338.068 171.01 338.059C171.338 338.068 171.657 338.08 171.994 338.09ZM168.603 338.076C168.581 338.075 168.562 338.075 168.54 338.073C168.562 338.075 168.581 338.075 168.603 338.076ZM158.817 338.097C158.473 338.081 158.13 338.067 157.812 338.052C158.133 338.067 158.471 338.081 158.817 338.097ZM160.312 338.097C159.951 338.082 159.586 338.066 159.248 338.053C159.588 338.066 159.948 338.082 160.312 338.097ZM230.67 338.059C230.298 338.071 229.926 338.081 229.554 338.09C229.926 338.081 230.298 338.071 230.67 338.059ZM154.416 336.633C154.07 336.617 153.733 336.601 153.422 336.586C153.736 336.601 154.067 336.615 154.416 336.633ZM152.903 336.632C152.583 336.615 152.28 336.601 152.004 336.587C152.283 336.601 152.58 336.615 152.903 336.632ZM145.127 336.608V336.61V336.608ZM147.41 336.572C147.41 336.572 147.876 336.601 148.705 336.647C147.863 336.601 147.41 336.572 147.41 336.572ZM151.423 336.632C151.103 336.616 150.806 336.601 150.554 336.587C150.807 336.601 151.097 336.616 151.423 336.632ZM164.68 338.095C164.343 338.081 163.994 338.067 163.672 338.055C163.995 338.067 164.341 338.081 164.68 338.095ZM221.451 338.073C221.363 338.075 221.277 338.075 221.19 338.076C221.277 338.075 221.363 338.075 221.451 338.073ZM201.272 338.077C200.962 338.075 200.65 338.074 200.343 338.073C200.65 338.074 200.962 338.075 201.272 338.077ZM179.347 338.089C178.995 338.081 178.654 338.07 178.309 338.06C178.654 338.07 178.994 338.081 179.347 338.089ZM226.182 338.064C225.872 338.072 225.561 338.078 225.25 338.085C225.561 338.078 225.87 338.072 226.182 338.064ZM205.561 338.075H204.845H205.561ZM195.468 338.08C195.119 338.077 194.769 338.074 194.424 338.07C194.77 338.074 195.119 338.077 195.468 338.08ZM186.697 338.086C186.332 338.078 185.971 338.071 185.612 338.064C185.971 338.071 186.33 338.078 186.697 338.086ZM182.27 338.087C181.926 338.078 181.587 338.07 181.247 338.062C181.587 338.071 181.924 338.078 182.27 338.087ZM192.549 338.083C192.191 338.077 191.835 338.073 191.482 338.067C191.835 338.073 192.191 338.077 192.549 338.083Z" fill="#FFFDBB"/>
<path fill-rule="evenodd" clip-rule="evenodd" d="M147.325 334.419C147.419 335.76 147.51 336.545 147.51 336.545C147.51 336.545 148.309 336.613 149.805 336.724H149.821C150.268 336.759 150.795 336.799 151.361 336.838C151.491 336.849 151.631 336.859 151.766 336.87C152.257 336.902 152.792 336.938 153.361 336.981C153.561 336.995 153.769 337.009 153.981 337.02C154.532 337.056 155.127 337.098 155.742 337.138C156.036 337.155 156.324 337.173 156.63 337.191C157.197 337.23 157.802 337.266 158.415 337.305C158.796 337.327 159.17 337.348 159.568 337.373C160.17 337.409 160.814 337.448 161.453 337.48C161.926 337.509 162.378 337.537 162.871 337.562C163.443 337.594 164.058 337.626 164.658 337.659C166.325 337.748 168.065 337.833 169.925 337.919C169.961 337.923 169.995 337.923 170.037 337.926C170.779 337.962 171.566 337.994 172.338 338.03C172.919 338.055 173.488 338.079 174.085 338.104C174.878 338.137 175.706 338.169 176.524 338.201C177.137 338.222 177.739 338.247 178.363 338.269C179.233 338.304 180.129 338.333 181.025 338.361C181.627 338.379 182.225 338.401 182.838 338.422C183.757 338.451 184.697 338.479 185.64 338.504C186.276 338.518 186.915 338.536 187.562 338.554C188.533 338.579 189.515 338.604 190.507 338.625C191.133 338.64 191.764 338.65 192.395 338.661C193.431 338.682 194.472 338.7 195.529 338.718C196.14 338.729 196.76 338.736 197.376 338.743C198.488 338.757 199.599 338.772 200.729 338.782C201.272 338.786 201.825 338.79 202.375 338.793C203.586 338.8 204.796 338.804 206.024 338.807H207.294C211.933 338.804 216.685 338.761 221.503 338.654C221.659 338.654 221.812 338.654 221.965 338.65C223.282 338.618 224.604 338.579 225.926 338.54C226.479 338.522 227.027 338.508 227.577 338.493C228.803 338.454 230.032 338.408 231.257 338.358C231.92 338.336 232.579 338.311 233.239 338.283C234.415 338.229 235.594 338.176 236.771 338.115C237.488 338.08 238.202 338.047 238.916 338.008C240.064 337.944 241.212 337.88 242.357 337.808C243.1 337.762 243.843 337.719 244.58 337.669C245.713 337.594 246.842 337.516 247.97 337.434C248.715 337.377 249.455 337.316 250.195 337.262C251.322 337.17 252.452 337.08 253.574 336.981C254.293 336.916 255.01 336.849 255.727 336.781C256.857 336.674 257.984 336.57 259.106 336.453C259.799 336.381 260.487 336.299 261.176 336.224C262.311 336.103 263.445 335.978 264.567 335.842C265.131 335.775 265.684 335.696 266.245 335.625C268.715 335.314 271.151 334.972 273.546 334.604C273.961 334.537 274.387 334.48 274.802 334.412H147.325V334.419Z" fill="#FFF5D9"/>
<path d="M248.428 142.471C239.904 146.052 189.818 174.705 189.818 174.705" stroke="#555555" stroke-width="2" stroke-linecap="round" stroke-linejoin="round"/>
<path fill-rule="evenodd" clip-rule="evenodd" d="M266.048 97.0496L276.266 141.91C276.266 141.91 276.875 164.808 253.52 162.867C237.774 161.557 243.634 149.114 243.634 149.114L245.611 105.563L266.048 97.0496Z" fill="#FFF5D9"/>
<path fill-rule="evenodd" clip-rule="evenodd" d="M266.048 97.0496L276.266 141.91C276.266 141.91 276.875 164.808 253.52 162.867C237.774 161.557 243.634 149.114 243.634 149.114L245.611 105.563L266.048 97.0496V97.0496Z" stroke="#555555" stroke-width="2" stroke-linecap="round" stroke-linejoin="round"/>
<path fill-rule="evenodd" clip-rule="evenodd" d="M311.434 579.1L297.949 420.658L281.396 337.13H161.978L199.53 575.519H213.789V394.265C228.048 398.661 241.353 399.793 255.008 394.265L297.424 579.1H311.434Z" fill="white"/>
<path fill-rule="evenodd" clip-rule="evenodd" d="M293.794 579.1L298.247 478.698L276.211 334.412L146.453 335.877L183.03 575.519L208.822 574.106L197.144 394.265C211.258 398.661 224.427 399.793 237.943 394.265L269.072 478.028L279.927 579.1H293.794Z" fill="#E0C785"/>
<path d="M72.5971 601.81H421.328" stroke="#555555" stroke-width="2" stroke-linecap="round" stroke-linejoin="round"/>
<path fill-rule="evenodd" clip-rule="evenodd" d="M204.022 576.169H183.586L154.322 578.814C148.439 579.463 144.395 581.237 144.395 587.343V588.952C144.395 595.647 149.659 601.078 156.15 601.078H204.673C209.415 601.078 213.262 597.109 213.262 592.214V586.678C213.262 578.435 204.022 576.169 204.022 576.169ZM300.582 599.613L338.221 589.823C343.727 588.39 346.651 582.194 344.337 576.851L342.612 572.869C340.148 567.178 333.789 564.464 328.136 566.689L299.441 579.446H285.484C282.011 579.446 279.198 580.878 279.198 584.453V592.122C279.198 596.258 282.455 599.613 286.476 599.613H300.582Z" fill="#555555"/>
<path d="M151.721 337.342L188.42 576.169H214.727L203.005 394.485M204.022 576.169H183.586L154.322 578.814C148.439 579.463 144.395 581.237 144.395 587.343V588.952C144.395 595.647 149.659 601.078 156.15 601.078H204.673C209.415 601.078 213.262 597.109 213.262 592.214V586.678C213.262 578.435 204.022 576.169 204.022 576.169V576.169ZM286.476 599.613H300.582L338.221 589.823C343.727 588.39 346.651 582.194 344.337 576.851L342.612 572.869C340.148 567.178 333.789 564.464 328.136 566.689L299.441 579.446H285.484C282.011 579.446 279.198 580.878 279.198 584.453V592.122C279.198 596.258 282.455 599.613 286.476 599.613V599.613Z" stroke="#555555" stroke-width="2" stroke-linecap="round" stroke-linejoin="round"/>
<path d="M203.005 394.485C217.347 399.659 228.833 400.994 242.567 394.485M281.126 334.412C281.126 334.412 303.035 454.124 303.777 471.962C304.521 489.8 303.777 579.1 303.777 579.1H275.963C275.963 579.1 270.624 490.074 270.207 478.978C269.613 463.095 242.567 394.265 242.567 394.265L281.126 334.412Z" stroke="#555555" stroke-width="2" stroke-linecap="round" stroke-linejoin="round"/>
<path fill-rule="evenodd" clip-rule="evenodd" d="M282.951 78.8964C279.418 97.3673 267.131 125.585 250.892 132.164C236.469 138.004 224.133 125.947 224.133 113.413C224.133 101.814 214.755 84.1896 213.5 75.6585C211.61 62.8246 220.867 39.3864 244.551 37.1465C268.659 34.863 287.343 55.9381 282.951 78.8964Z" fill="#FFF5D9"/>
<path fill-rule="evenodd" clip-rule="evenodd" d="M282.951 78.8964C279.418 97.3673 267.131 125.585 250.892 132.164C236.469 138.004 224.133 125.947 224.133 113.413C224.133 101.814 214.755 84.1896 213.5 75.6585C211.61 62.8246 220.867 39.3864 244.551 37.1465C268.659 34.863 287.343 55.9381 282.951 78.8964V78.8964Z" stroke="#555555" stroke-width="2" stroke-linecap="round" stroke-linejoin="round"/>
<path fill-rule="evenodd" clip-rule="evenodd" d="M229.336 81.7821C228.995 79.378 226.772 77.7055 224.368 78.0461C221.964 78.3841 220.291 80.6091 220.632 83.0132C220.973 85.4148 223.195 87.0898 225.599 86.7493C228.004 86.4087 229.676 84.1837 229.336 81.7821ZM254.245 77.3865C253.904 74.9824 251.68 73.3099 249.279 73.6505C246.875 73.9885 245.203 76.2135 245.541 78.6176C245.884 81.0192 248.106 82.6942 250.51 82.3537C252.913 82.0131 254.585 79.7881 254.245 77.3865ZM241.427 107.19C248.673 106.295 253.717 100.443 252.691 94.1192L226.449 97.3579C227.472 103.684 234.178 108.086 241.427 107.19Z" fill="#555555"/>
<path d="M295.169 197.527L297.241 216.388C298.444 227.318 298.568 238.344 297.613 249.297L290.427 331.826C238.691 341.297 147.721 335.7 147.721 335.7C147.721 335.7 143.409 311.165 163.242 278.453C183.075 245.738 216.703 182.031 216.703 182.031M241.427 107.19C248.673 106.295 253.717 100.443 252.691 94.1192L226.449 97.3579C227.472 103.684 234.178 108.086 241.427 107.19ZM215.291 79.4672C215.291 79.4672 212.176 70.4728 220.588 67.7456L215.291 79.4672ZM246.963 62.0526C252.128 61.1362 254.162 64.037 255.754 69.2109L246.963 62.0526Z" stroke="#555555" stroke-width="2" stroke-linecap="round" stroke-linejoin="round"/>
<path d="M331.948 192.057C324.674 187.801 312.766 194.902 305.35 207.91C297.933 220.923 297.82 234.917 305.094 239.174" stroke="#555555" stroke-width="2" stroke-linecap="round" stroke-linejoin="round"/>
<path fill-rule="evenodd" clip-rule="evenodd" d="M249.582 337.547C267.936 337.275 282.131 344.318 282.908 351.628C282.908 351.564 280.614 334.761 281.105 334.761L249.582 337.547ZM152.925 337.13L157.893 369.245C157.893 369.245 156.318 340.063 204.47 338.583L167.525 337.659L152.925 337.13Z" fill="#D2AB40"/>
<path d="M188.352 338.807C188.352 338.807 188.607 361.548 169.304 371.042M245.536 337.342C245.536 337.342 243.577 361.514 267.476 365.181L245.536 337.342Z" stroke="#555555" stroke-width="2" stroke-linecap="round" stroke-linejoin="round"/>
<path fill-rule="evenodd" clip-rule="evenodd" d="M142.829 138.902L138.935 139.414C131.43 140.404 124.502 135.458 123.454 128.373L121.084 112.315C120.036 105.227 125.271 98.6785 132.773 97.6908L136.667 97.1758C144.169 96.1856 151.103 101.132 152.148 108.22L154.518 124.275C155.566 131.366 150.331 137.914 142.829 138.902Z" fill="#FFF5D9"/>
<path fill-rule="evenodd" clip-rule="evenodd" d="M142.829 138.902L138.935 139.414C131.43 140.404 124.502 135.458 123.454 128.373L121.084 112.315C120.036 105.227 125.271 98.6785 132.773 97.6908L136.667 97.1758C144.169 96.1856 151.103 101.132 152.148 108.22L154.518 124.275C155.566 131.366 150.331 137.914 142.829 138.902Z" stroke="#555555" stroke-width="2" stroke-linecap="round" stroke-linejoin="round"/>
<path fill-rule="evenodd" clip-rule="evenodd" d="M146.661 139.219C144.484 140.934 129.061 152.723 130.899 167.409C130.899 167.409 129.888 161.125 129.614 159.183C127.347 144.069 126.214 136.512 126.214 136.512C130.9 140.876 137.715 141.779 146.661 139.219ZM243.818 153.954C246.015 147.949 253.223 144.343 257.95 140.051C266.324 132.451 269.034 124.203 269.034 122.345C269.034 122.345 263.482 128.581 257.95 132.008C251.517 135.994 244.994 134.087 244.994 135.15L243.818 153.954Z" fill="#DDD2B5"/>
<path fill-rule="evenodd" clip-rule="evenodd" d="M210.331 164.449C217.514 161.204 239.949 158.241 244.964 161.518C244.964 161.518 242.567 160.156 242.379 154.918C242.19 149.681 242.567 145.131 242.567 146.559L210.331 164.449Z" fill="#F5E5B9"/>
<path fill-rule="evenodd" clip-rule="evenodd" d="M213.262 57.0335C218.051 54.1419 238.288 43.3624 263.23 48.3717C263.23 48.3717 271.967 55.5092 275.648 80.9324L282.13 80.0174C282.13 80.0174 283.977 71.5308 283.522 67.4365C283.064 63.3448 277.414 28.1853 277.414 28.1853H241.033L216.726 37.8537L213.262 57.0335Z" fill="#B67BF2"/>
<path d="M279.198 26.7201L283.594 68.342C283.594 68.342 283.207 80.2791 279.365 89.7236M213.262 56.0241C218.204 53.3558 241.741 43.8599 267.476 48.4824L213.262 56.0241Z" stroke="#555555" stroke-width="2" stroke-linecap="round" stroke-linejoin="round"/>
<path fill-rule="evenodd" clip-rule="evenodd" d="M277.821 84.7766C281.592 84.1947 284.132 80.9144 283.497 77.4487C282.863 73.983 279.294 71.6483 275.526 72.2302L271.872 72.791L274.89 85.328L277.821 84.7766Z" fill="#FFF5D9"/>
<path d="M274.803 72.1412C274.803 72.1412 272.338 57.3871 266.011 50.1633M278.352 85.328C281.776 84.7207 284.083 81.2972 283.506 77.6803C282.931 74.0633 279.69 71.6267 276.268 72.2341L278.352 85.328Z" stroke="#555555" stroke-width="2" stroke-linecap="round" stroke-linejoin="round"/>
<defs>
<radialGradient id="paint0_radial" cx="0" cy="0" r="1" gradientUnits="userSpaceOnUse" gradientTransform="translate(505.5 302) rotate(90) scale(302 505.5)">
<stop stop-color="white" stop-opacity="0.58"/>
<stop offset="1" stop-color="white" stop-opacity="0"/>
</radialGradient>
</defs>
</svg>
