<svg width="419" height="79" viewBox="0 0 419 79" fill="none" xmlns="http://www.w3.org/2000/svg">
<path d="M93.4997 23.336C96.6197 23.336 99.2597 23.864 101.42 24.92C103.628 25.976 104.732 27.32 104.732 28.952C104.732 29.672 104.54 30.296 104.156 30.824C103.82 31.352 103.292 31.616 102.572 31.616C101.9 31.616 100.412 31.088 98.1077 30.032C95.8037 28.928 93.6917 28.376 91.7717 28.376C89.8997 28.376 87.9557 28.976 85.9397 30.176C83.9237 31.376 82.9157 32.84 82.9157 34.568C82.9157 36.92 84.1397 38.648 86.5877 39.752C88.4117 40.568 91.0277 41.312 94.4357 41.984C97.8437 42.608 100.628 43.928 102.788 45.944C104.948 47.912 106.028 50.912 106.028 54.944C106.028 61.088 104.18 65.624 100.484 68.552C98.4197 70.184 95.4917 71 91.6997 71C87.9557 71 84.2117 69.968 80.4677 67.904C78.0197 66.608 76.7957 65.312 76.7957 64.016C76.7957 63.536 76.9877 63.008 77.3717 62.432C77.8037 61.856 78.3797 61.376 79.0997 60.992C79.8197 60.608 80.4677 60.56 81.0437 60.848C81.6677 61.088 82.6517 61.544 83.9957 62.216C85.3397 62.888 86.3237 63.344 86.9477 63.584C88.9637 64.352 90.8597 64.736 92.6357 64.736C94.4117 64.736 96.1157 63.872 97.7477 62.144C99.4277 60.368 100.268 58.208 100.268 55.664C100.268 52.304 98.5877 49.952 95.2277 48.608C93.5957 47.936 91.7477 47.432 89.6837 47.096C85.4117 46.328 82.1957 45.056 80.0357 43.28C77.8757 41.456 76.7957 38.72 76.7957 35.072C76.7957 31.424 78.3557 28.568 81.4757 26.504C84.5957 24.392 88.6037 23.336 93.4997 23.336ZM109.123 54.152C109.123 50.936 109.963 48.008 111.643 45.368C113.371 42.728 115.555 40.76 118.195 39.464C120.835 38.12 123.403 37.448 125.899 37.448C128.395 37.448 130.387 37.76 131.875 38.384C133.411 38.96 134.179 39.752 134.179 40.76C134.179 41.72 133.891 42.704 133.315 43.712C132.787 44.672 132.067 45.152 131.155 45.152C130.819 45.152 129.883 44.888 128.347 44.36C126.859 43.784 125.899 43.496 125.467 43.496C122.683 43.496 120.307 44.528 118.339 46.592C116.371 48.608 115.387 51.296 115.387 54.656C115.387 58.016 115.915 60.536 116.971 62.216C118.075 63.848 119.947 64.664 122.587 64.664C123.643 64.664 125.443 64.064 127.987 62.864C130.579 61.616 132.187 60.992 132.811 60.992C133.435 60.992 133.939 61.184 134.323 61.568C134.707 61.952 134.899 62.432 134.899 63.008C134.899 64.16 134.155 65.384 132.667 66.68C131.227 67.928 129.427 68.984 127.267 69.848C125.107 70.664 123.163 71.072 121.435 71.072C117.595 71.072 114.571 69.56 112.363 66.536C110.203 63.512 109.123 59.384 109.123 54.152ZM145.749 47.672L146.325 64.664C146.325 66.776 146.229 68 146.037 68.336C145.941 69.2 145.653 69.872 145.173 70.352C144.741 70.832 143.877 71.072 142.581 71.072C141.957 71.072 141.453 70.688 141.069 69.92C140.685 69.104 140.469 68.192 140.421 67.184C140.085 58.736 139.629 50.816 139.053 43.424C138.525 35.984 138.261 29.072 138.261 22.688C138.261 21.68 138.597 20.888 139.269 20.312C139.941 19.736 140.733 19.448 141.645 19.448C142.989 19.448 143.781 20.6 144.021 22.904C144.309 25.208 144.477 28.088 144.525 31.544C144.621 35 144.717 37.52 144.813 39.104C147.213 37.856 149.613 37.232 152.013 37.232C157.581 37.232 161.109 39.68 162.597 44.576C163.461 47.36 163.893 50.936 163.893 55.304C163.893 56.744 163.749 59.024 163.461 62.144C163.221 65.216 163.077 67.208 163.029 68.12C162.981 69.032 162.573 69.752 161.805 70.28C161.085 70.76 160.293 71 159.429 71C158.085 71 157.413 70.28 157.413 68.84L157.917 56.312C157.917 55.256 157.869 53.504 157.773 51.056C157.677 48.608 157.173 46.664 156.261 45.224C155.397 43.784 153.861 43.064 151.653 43.064C147.717 43.064 145.749 44.6 145.749 47.672ZM178.647 37.664C181.191 37.664 183.615 38.408 185.919 39.896C188.223 41.384 189.375 43.232 189.375 45.44C189.375 47.6 188.439 49.712 186.567 51.776C184.695 53.792 182.199 55.016 179.079 55.448C177.735 55.64 175.719 55.736 173.031 55.736C173.559 59.816 174.591 62.504 176.127 63.8C176.607 64.328 177.255 64.592 178.071 64.592C181.047 64.592 183.543 63.656 185.559 61.784C187.575 59.864 189.015 58.904 189.879 58.904C190.263 58.904 190.839 59.264 191.607 59.984C192.375 60.704 192.759 61.376 192.759 62C192.759 63.248 191.247 65.048 188.223 67.4C186.879 68.504 185.247 69.44 183.327 70.208C181.455 70.928 179.703 71.288 178.071 71.288C173.895 71.288 170.823 68.6 168.855 63.224C167.607 59.912 166.983 56.264 166.983 52.28C166.983 48.296 167.919 44.864 169.791 41.984C171.663 39.104 174.615 37.664 178.647 37.664ZM179.007 42.632C177.183 42.632 175.623 43.664 174.327 45.728C173.847 46.448 173.391 48.08 172.959 50.624C179.679 50.624 183.039 48.968 183.039 45.656C183.039 43.64 181.695 42.632 179.007 42.632ZM214.174 37.304L214.102 23.408C214.102 20.816 214.918 19.52 216.55 19.52C218.23 19.52 219.166 20.24 219.358 21.68C219.454 22.304 219.574 26.072 219.718 32.984C219.862 39.896 220.078 46.376 220.366 52.424C220.702 58.472 220.87 64.112 220.87 69.344C220.87 70.784 219.79 71.504 217.63 71.504C216.19 71.504 215.47 70.496 215.47 68.48C213.406 70.112 210.958 70.928 208.126 70.928C204.526 70.928 201.598 69.584 199.342 66.896C197.134 64.208 196.03 60.896 196.03 56.96C196.03 53.024 196.822 49.352 198.406 45.944C200.038 42.488 202.558 40.016 205.966 38.528C208.078 37.616 210.118 37.16 212.086 37.16C212.806 37.16 213.502 37.208 214.174 37.304ZM214.534 47.168C214.198 46.112 213.79 45.32 213.31 44.792C212.83 44.216 212.302 43.88 211.726 43.784C211.198 43.64 210.55 43.568 209.782 43.568C209.014 43.568 208.078 43.856 206.974 44.432C205.87 45.008 204.934 45.944 204.166 47.24C202.63 49.832 201.862 52.568 201.862 55.448C201.862 58.28 202.414 60.608 203.518 62.432C204.67 64.208 206.278 65.096 208.342 65.096C210.454 65.096 212.11 64.064 213.31 62C214.51 59.936 215.11 57.296 215.11 54.08C215.11 50.48 214.918 48.176 214.534 47.168ZM224.877 40.184C225.069 39.368 225.477 38.696 226.101 38.168C226.725 37.592 227.349 37.304 227.973 37.304C228.645 37.304 229.149 37.424 229.485 37.664C229.869 37.904 230.085 38.12 230.133 38.312C230.229 38.504 230.325 38.84 230.421 39.32C230.133 43.064 229.989 46.448 229.989 49.472C229.989 52.448 230.349 55.88 231.069 59.768C231.789 63.608 232.581 65.528 233.445 65.528C234.741 65.528 236.373 64.808 238.341 63.368C240.357 61.928 241.797 60.416 242.661 58.832C242.085 51.92 241.797 45.992 241.797 41.048C241.797 40.04 242.109 39.176 242.733 38.456C243.405 37.736 244.197 37.376 245.109 37.376C246.597 37.376 247.341 38.384 247.341 40.4C247.341 43.808 247.581 48.872 248.061 55.592C248.589 62.312 249.117 66.584 249.645 68.408C249.741 68.792 249.789 69.248 249.789 69.776C249.789 70.256 249.453 70.712 248.781 71.144C248.157 71.624 247.317 71.864 246.261 71.864C245.253 71.864 244.581 71.288 244.245 70.136C244.149 69.176 243.909 67.736 243.525 65.816C240.165 69.32 236.781 71.072 233.373 71.072C231.789 71.072 230.373 70.472 229.125 69.272C227.877 68.072 226.893 66.44 226.173 64.376C224.925 60.392 224.301 56.648 224.301 53.144C224.301 49.64 224.493 45.32 224.877 40.184ZM253.633 24.416C253.777 22.592 254.065 21.416 254.497 20.888C254.977 20.312 255.721 20.024 256.729 20.024C258.793 20.024 259.825 20.864 259.825 22.544C259.825 23.84 259.705 27.224 259.465 32.696C259.273 38.168 259.177 43.064 259.177 47.384C259.177 51.704 259.345 55.184 259.681 57.824C260.257 62.432 261.073 64.736 262.129 64.736C263.185 64.736 263.977 63.992 264.505 62.504C264.745 61.928 265.129 61.424 265.657 60.992C266.185 60.512 266.857 60.272 267.673 60.272C269.353 60.272 270.193 61.688 270.193 64.52C270.193 66.056 269.353 67.592 267.673 69.128C266.041 70.616 264.409 71.36 262.777 71.36C261.145 71.36 259.825 71.096 258.817 70.568C257.857 69.992 257.065 69.152 256.441 68.048C255.865 66.944 255.385 65.888 255.001 64.88C254.665 63.824 254.425 62.552 254.281 61.064C253.993 58.664 253.777 54.824 253.633 49.544C253.537 44.216 253.489 39.152 253.489 34.352C253.489 29.504 253.537 26.192 253.633 24.416ZM283.342 37.664C285.886 37.664 288.31 38.408 290.614 39.896C292.918 41.384 294.07 43.232 294.07 45.44C294.07 47.6 293.134 49.712 291.262 51.776C289.39 53.792 286.894 55.016 283.774 55.448C282.43 55.64 280.414 55.736 277.726 55.736C278.254 59.816 279.286 62.504 280.822 63.8C281.302 64.328 281.95 64.592 282.766 64.592C285.742 64.592 288.238 63.656 290.254 61.784C292.27 59.864 293.71 58.904 294.574 58.904C294.958 58.904 295.534 59.264 296.302 59.984C297.07 60.704 297.454 61.376 297.454 62C297.454 63.248 295.942 65.048 292.918 67.4C291.574 68.504 289.942 69.44 288.022 70.208C286.15 70.928 284.398 71.288 282.766 71.288C278.59 71.288 275.518 68.6 273.55 63.224C272.302 59.912 271.678 56.264 271.678 52.28C271.678 48.296 272.614 44.864 274.486 41.984C276.358 39.104 279.31 37.664 283.342 37.664ZM283.702 42.632C281.878 42.632 280.318 43.664 279.022 45.728C278.542 46.448 278.086 48.08 277.654 50.624C284.374 50.624 287.734 48.968 287.734 45.656C287.734 43.64 286.39 42.632 283.702 42.632ZM310.95 60.488L311.022 67.904C311.022 68.768 310.614 69.56 309.798 70.28C309.03 71 308.262 71.36 307.494 71.36C306.39 71.36 305.694 70.496 305.406 68.768C305.358 68.384 305.166 64.88 304.83 58.256C304.494 51.584 303.846 46.352 302.886 42.56C302.454 40.736 302.238 39.656 302.238 39.32C302.238 37.736 303.198 36.944 305.118 36.944C305.934 36.944 306.582 37.256 307.062 37.88C307.542 38.504 307.83 39.152 307.926 39.824C308.07 40.448 308.19 41.312 308.286 42.416C308.382 43.52 308.454 44.216 308.502 44.504C309.51 42.104 311.022 40.304 313.038 39.104C315.054 37.904 317.262 37.304 319.662 37.304C323.598 37.304 325.566 38.312 325.566 40.328C325.566 41.336 325.206 42.152 324.486 42.776C323.814 43.352 323.022 43.64 322.11 43.64C318.03 43.64 315.15 44.936 313.47 47.528C311.79 50.12 310.95 54.44 310.95 60.488ZM334.333 62.36C335.389 62.36 336.301 62.744 337.069 63.512C337.837 64.28 338.293 65.336 338.437 66.68C338.437 67.736 338.053 68.72 337.285 69.632C336.517 70.496 335.605 70.928 334.549 70.928C333.541 70.928 332.629 70.664 331.813 70.136C330.997 69.56 330.589 68.696 330.589 67.544C330.589 66.392 330.949 65.24 331.669 64.088C332.437 62.936 333.325 62.36 334.333 62.36ZM348.867 71.072C347.619 71.072 346.875 70.376 346.635 68.984C346.635 59.288 346.059 50.648 344.907 43.064C344.907 42.104 345.243 41.24 345.915 40.472C346.635 39.704 347.427 39.32 348.291 39.32C349.203 39.32 349.875 39.824 350.307 40.832C352.083 38.48 354.459 37.304 357.435 37.304C361.227 37.304 364.155 39.128 366.219 42.776C368.619 39.32 371.787 37.592 375.723 37.592C379.707 37.592 382.683 39.176 384.651 42.344C385.947 44.312 386.859 46.904 387.387 50.12C387.915 53.336 388.179 57.896 388.179 63.8C388.179 66.104 387.939 67.904 387.459 69.2C386.979 70.448 385.971 71.072 384.435 71.072C383.187 71.072 382.563 70.28 382.563 68.696L382.779 59.696C382.779 48.896 379.971 43.496 374.355 43.496C372.579 43.496 371.331 44.12 370.611 45.368C369.795 46.856 369.315 48.416 369.171 50.048C368.979 52.928 368.883 55.544 368.883 57.896V68.336C368.883 69.104 368.499 69.752 367.731 70.28C366.963 70.808 366.171 71.072 365.355 71.072C364.299 71.072 363.627 70.376 363.339 68.984L363.555 54.08C363.555 48.8 362.667 45.512 360.891 44.216C360.027 43.592 358.707 43.28 356.931 43.28C355.203 43.28 353.907 43.928 353.043 45.224C352.227 46.52 351.819 48.608 351.819 51.488L352.251 64.88C352.251 69.008 351.123 71.072 348.867 71.072ZM404.069 37.664C406.613 37.664 409.037 38.408 411.341 39.896C413.645 41.384 414.797 43.232 414.797 45.44C414.797 47.6 413.861 49.712 411.989 51.776C410.117 53.792 407.621 55.016 404.501 55.448C403.157 55.64 401.141 55.736 398.453 55.736C398.981 59.816 400.013 62.504 401.549 63.8C402.029 64.328 402.677 64.592 403.493 64.592C406.469 64.592 408.965 63.656 410.981 61.784C412.997 59.864 414.437 58.904 415.301 58.904C415.685 58.904 416.261 59.264 417.029 59.984C417.797 60.704 418.181 61.376 418.181 62C418.181 63.248 416.669 65.048 413.645 67.4C412.301 68.504 410.669 69.44 408.749 70.208C406.877 70.928 405.125 71.288 403.493 71.288C399.317 71.288 396.245 68.6 394.277 63.224C393.029 59.912 392.405 56.264 392.405 52.28C392.405 48.296 393.341 44.864 395.213 41.984C397.085 39.104 400.037 37.664 404.069 37.664ZM404.429 42.632C402.605 42.632 401.045 43.664 399.749 45.728C399.269 46.448 398.813 48.08 398.381 50.624C405.101 50.624 408.461 48.968 408.461 45.656C408.461 43.64 407.117 42.632 404.429 42.632Z" fill="white"/>
<g clip-path="url(#clip0)">
<path d="M69.7023 79H9.29773C6.70318 79 4.60001 76.8968 4.60001 74.3023V67.7673L74.4 55.0834V74.3023C74.4 76.8968 72.2967 79 69.7023 79Z" fill="#CDBFBA"/>
<path d="M56.9223 74.3023H9.30556C6.70678 74.3023 4.60001 72.1955 4.60001 69.5967V11.247C4.60001 8.64819 6.70678 6.54142 9.30556 6.54142H69.6943C72.2931 6.54142 74.3998 8.64819 74.3998 11.247V56.8246C74.3998 58.0726 71.5552 59.2694 70.6727 60.152L60.2495 70.5751C59.3673 71.4576 58.1703 74.3023 56.9223 74.3023Z" fill="#F9F3F1"/>
<path d="M56.9003 74.3023C58.1484 74.3023 59.3452 73.8065 60.2277 72.924L73.0217 60.13C73.9042 59.2475 74.4 58.0507 74.4 56.8026V54.8963C74.4 57.0256 72.6739 58.7517 70.5446 58.7517H62.705C60.5757 58.7517 58.8496 60.4778 58.8496 62.6071V70.4467C58.8496 72.576 57.1235 74.3021 54.9942 74.3021H56.9003V74.3023Z" fill="#EFE2DD"/>
<path d="M74.3994 11.2385V23.3242H4.60063V11.2385C4.60063 8.64537 6.70364 6.54079 9.29835 6.54079H69.7016C72.2963 6.54079 74.3994 8.64537 74.3994 11.2385Z" fill="#FECE85"/>
<path d="M17.8983 14.7403C17.0023 14.7403 16.2416 14.7399 15.5933 14.7399C13.6234 14.7399 12.0215 13.138 12.0215 11.1696V6.54079H14.3703V11.1696C14.3703 11.843 14.9184 12.391 15.5933 12.391C16.2416 12.391 18.5466 14.7403 17.8983 14.7403Z" fill="#FDB441"/>
<path d="M60.5625 14.7403C60.5625 14.7403 58.9063 14.7399 58.2564 14.7399C56.2881 14.7399 54.6862 13.138 54.6862 11.1696V6.54079H57.035V11.1696C57.035 11.843 57.5831 12.391 58.2564 12.391C58.9063 12.391 60.5625 14.0921 60.5625 14.7403Z" fill="#FDB441"/>
<path d="M19.66 6.54142V3.57136C19.66 2.89724 19.1116 2.34886 18.4375 2.34886H17.8983C17.2242 2.34886 16.6758 2.89724 16.6758 3.57136V11.1691C16.6758 11.8433 17.2242 12.3916 17.8983 12.3916C18.5469 12.3916 19.0727 12.9175 19.0727 13.5661C19.0727 14.2147 18.5469 14.7405 17.8983 14.7405C15.929 14.7405 14.327 13.1384 14.327 11.1691V3.57136C14.327 1.60208 15.929 0 17.8983 0H18.4375C20.4067 0 22.0088 1.60208 22.0088 3.57136V6.54142H19.66Z" fill="#554E56"/>
<path d="M62.3242 6.54142V3.57136C62.3242 2.89724 61.7758 2.34886 61.1017 2.34886H60.5625C59.8884 2.34886 59.34 2.89724 59.34 3.57136V11.1691C59.34 11.8433 59.8884 12.3916 60.5625 12.3916C61.2111 12.3916 61.737 12.9175 61.737 13.5661C61.737 14.2147 61.2111 14.7405 60.5625 14.7405C58.5933 14.7405 56.9912 13.1384 56.9912 11.1691V3.57136C56.9912 1.60208 58.5933 0 60.5625 0H61.1017C63.071 0 64.6731 1.60208 64.6731 3.57136V6.54142H62.3242Z" fill="#554E56"/>
<path d="M18.3576 38.1986H12.7651C12.1474 38.1986 11.6466 37.6978 11.6466 37.08V31.4876C11.6466 30.8698 12.1474 30.369 12.7651 30.369H18.3576C18.9753 30.369 19.4761 30.8698 19.4761 31.4876V37.08C19.4761 37.6978 18.9753 38.1986 18.3576 38.1986Z" fill="#FEDBA6"/>
<path d="M34.3167 38.1986H28.7242C28.1065 38.1986 27.6057 37.6978 27.6057 37.0801V31.4876C27.6057 30.8698 28.1065 30.369 28.7242 30.369H34.3167C34.9345 30.369 35.4352 30.8698 35.4352 31.4876V37.0801C35.4352 37.6978 34.9345 38.1986 34.3167 38.1986Z" fill="#FEDBA6"/>
<path d="M50.2758 38.1986H44.6833C44.0656 38.1986 43.5648 37.6978 43.5648 37.0801V31.4876C43.5648 30.8698 44.0656 30.369 44.6833 30.369H50.2758C50.8935 30.369 51.3943 30.8698 51.3943 31.4876V37.0801C51.3943 37.6978 50.8935 38.1986 50.2758 38.1986Z" fill="#FEDBA6"/>
<path d="M66.2349 38.1986H60.6424C60.0247 38.1986 59.5239 37.6978 59.5239 37.0801V31.4876C59.5239 30.8698 60.0247 30.369 60.6424 30.369H66.2349C66.8527 30.369 67.3534 30.8698 67.3534 31.4876V37.0801C67.3534 37.6978 66.8527 38.1986 66.2349 38.1986Z" fill="#FEDBA6"/>
<path d="M18.3576 52.726H12.7651C12.1474 52.726 11.6466 52.2252 11.6466 51.6075V46.015C11.6466 45.3972 12.1474 44.8964 12.7651 44.8964H18.3576C18.9753 44.8964 19.4761 45.3972 19.4761 46.015V51.6075C19.4761 52.2252 18.9753 52.726 18.3576 52.726Z" fill="#FEDBA6"/>
<path d="M34.3167 52.726H28.7242C28.1065 52.726 27.6057 52.2252 27.6057 51.6075V46.015C27.6057 45.3972 28.1065 44.8964 28.7242 44.8964H34.3167C34.9345 44.8964 35.4352 45.3972 35.4352 46.015V51.6075C35.4352 52.2252 34.9345 52.726 34.3167 52.726Z" fill="#FEDBA6"/>
<path d="M50.2758 52.726H44.6833C44.0656 52.726 43.5648 52.2252 43.5648 51.6075V46.015C43.5648 45.3972 44.0656 44.8964 44.6833 44.8964H50.2758C50.8935 44.8964 51.3943 45.3972 51.3943 46.015V51.6075C51.3943 52.2252 50.8935 52.726 50.2758 52.726Z" fill="#FEDBA6"/>
<path d="M66.2349 53.0747H60.6424C60.0247 53.0747 59.5239 52.5739 59.5239 51.9562V46.3637C59.5239 45.7459 60.0247 45.2452 60.6424 45.2452H66.2349C66.8527 45.2452 67.3534 45.7459 67.3534 46.3637V51.9562C67.3534 52.5739 66.8527 53.0747 66.2349 53.0747Z" fill="#FEDBA6"/>
<path d="M18.3576 67.2534H12.7651C12.1474 67.2534 11.6466 66.7526 11.6466 66.1348V60.5424C11.6466 59.9246 12.1474 59.4238 12.7651 59.4238H18.3576C18.9753 59.4238 19.4761 59.9246 19.4761 60.5424V66.1348C19.4761 66.7526 18.9753 67.2534 18.3576 67.2534Z" fill="#FEDBA6"/>
<path d="M34.3167 67.2534H28.7242C28.1065 67.2534 27.6057 66.7526 27.6057 66.1348V60.5424C27.6057 59.9246 28.1065 59.4238 28.7242 59.4238H34.3167C34.9345 59.4238 35.4352 59.9246 35.4352 60.5424V66.1348C35.4352 66.7526 34.9345 67.2534 34.3167 67.2534Z" fill="#FEDBA6"/>
<path d="M50.2758 67.2534H44.6833C44.0656 67.2534 43.5648 66.7526 43.5648 66.1348V60.5424C43.5648 59.9246 44.0656 59.4238 44.6833 59.4238H50.2758C50.8935 59.4238 51.3943 59.9246 51.3943 60.5424V66.1348C51.3943 66.7526 50.8935 67.2534 50.2758 67.2534Z" fill="#FEDBA6"/>
</g>
<defs>
<clipPath id="clip0">
<rect width="79" height="79" fill="white"/>
</clipPath>
</defs>
</svg>
